<svg width="56" height="55" viewBox="0 0 56 55" fill="none" xmlns="http://www.w3.org/2000/svg">
<rect x="0.578125" y="0.108398" width="54.8438" height="54.8438" rx="14.7656" fill="#FF4400"/>
<path d="M28 19.9105C28.602 19.9105 29.0885 20.3971 29.0885 20.999V27.3953C29.0885 27.7752 28.8915 28.1257 28.5671 28.3249L23.7688 31.2596C23.5925 31.3685 23.3955 31.4185 23.2017 31.4185C22.8349 31.4185 22.4778 31.2335 22.2721 30.8971C21.9586 30.3844 22.1197 29.715 22.6335 29.4004L26.9115 26.7846V20.999C26.9115 20.3971 27.398 19.9105 28 19.9105ZM38.8854 28.6188H34.5312C33.9293 28.6188 33.4427 29.1054 33.4427 29.7074C33.4427 30.3093 33.9293 30.7959 34.5312 30.7959H37.3266L32.6143 35.5071C32.4042 35.7172 32.033 35.7183 31.8208 35.5071L30.619 34.3054C29.5838 33.268 27.7801 33.268 26.7416 34.3054L22.3298 38.7357C21.9053 39.1624 21.9074 39.8515 22.3331 40.276C22.5453 40.4872 22.824 40.5928 23.1016 40.5928C23.3813 40.5928 23.6611 40.485 23.8733 40.2727L28.2841 35.8424C28.4942 35.6323 28.8654 35.6312 29.0777 35.8424L30.2794 37.0441C31.3146 38.0815 33.1205 38.0804 34.1546 37.0441L38.8854 32.3144V35.149C38.8854 35.7509 39.372 36.2375 39.974 36.2375C40.5759 36.2375 41.0625 35.7509 41.0625 35.149V30.7948C41.0625 29.5941 40.0861 28.6177 38.8854 28.6177V28.6188ZM17.1146 27.5303C17.1146 21.5281 21.9978 16.6449 28 16.6449C33.2555 16.6449 37.7577 20.3894 38.7058 25.5502C38.8157 26.1413 39.3763 26.5397 39.9729 26.4243C40.5639 26.3155 40.9547 25.7483 40.847 25.1573C39.7094 18.9634 34.3059 14.4678 28 14.4678C20.7971 14.4678 14.9375 20.3274 14.9375 27.5303C14.9375 31.1399 16.4527 34.6232 19.0936 37.0855C19.3026 37.2814 19.5703 37.3783 19.8359 37.3783C20.1277 37.3783 20.4172 37.2629 20.6317 37.0322C21.042 36.5935 21.017 35.9044 20.5772 35.494C18.3773 33.4411 17.1135 30.539 17.1135 27.5314L17.1146 27.5303Z" fill="white"/>
</svg>
