<svg width="40" height="40" viewBox="0 0 40 40" fill="none" xmlns="http://www.w3.org/2000/svg">
<path opacity="0.6" d="M37.9196 14.5526C36.9394 13.659 35.6594 13.2162 34.3464 13.2656C33.0219 13.3281 31.8028 13.9025 30.9116 14.8802L25.6119 20.6965C24.7042 19.2005 23.0568 18.1965 21.1821 18.1965H14.8281V15.4941C16.0027 15.1896 17.0554 14.5872 17.8808 13.7462L20.2102 15.0875L21.8543 12.237L19.5067 10.8857C19.6616 10.3278 19.7703 9.75174 19.7703 9.14443C19.7703 8.53712 19.6616 7.96108 19.5067 7.40314L21.8543 6.05191L20.2102 3.20133L17.8808 4.54268C17.0554 3.70166 16.0027 3.10093 14.8281 2.79481V0.0939941H11.5334V2.79645C10.3588 3.10093 9.3061 3.70331 8.48076 4.54433L6.15135 3.20297L4.50726 6.05356L6.85478 7.40479C6.69993 7.96272 6.5912 8.53877 6.5912 9.14608C6.5912 9.75339 6.69993 10.3294 6.85478 10.8874L4.50726 12.2386L6.15135 15.0892L8.48076 13.7478C9.3061 14.5888 10.3588 15.1896 11.5334 15.4957V18.1982H4.94217C2.21738 18.1982 0 20.4135 0 23.1357V34.6565C0 37.3787 2.21738 39.594 4.94217 39.594H22.1541L38.2771 21.5162C40.0793 19.4967 39.9179 16.3746 37.9179 14.5543L37.9196 14.5526ZM9.88433 9.14608C9.88433 7.33072 11.362 5.85441 13.1791 5.85441C14.9962 5.85441 16.4739 7.33072 16.4739 9.14608C16.4739 10.9614 14.9962 12.4377 13.1791 12.4377C11.362 12.4377 9.88433 10.9614 9.88433 9.14608ZM35.8175 19.3256L20.678 36.3023H4.94217C4.03281 36.3023 3.29478 35.565 3.29478 34.6565V23.1357C3.29478 22.2272 4.03281 21.4898 4.94217 21.4898H21.1805C22.2183 21.4898 23.0634 22.3341 23.0634 23.371C23.0634 24.2993 22.3699 25.1008 21.449 25.2308L12.9468 26.4438L13.413 29.7025L21.9152 28.4896C23.8509 28.2131 25.4225 26.8635 26.0567 25.1008L33.3481 17.0955C33.6479 16.7679 34.0581 16.5754 34.5013 16.554C34.9444 16.5211 35.3711 16.6873 35.7006 16.9868C36.3727 17.5974 36.4238 18.6475 35.8175 19.3256Z" fill="white"/>
</svg>
