<svg width="105" height="105" viewBox="0 0 105 105" fill="none" xmlns="http://www.w3.org/2000/svg">
<rect x="0.5" y="0.343994" width="104" height="104" rx="28" fill="#FF4400"/>
<path d="M76.6329 33.5449H61.9662C59.5374 33.5449 57.5662 35.5161 57.5662 37.9449C57.5662 40.3737 59.5374 42.3449 61.9662 42.3449H71.8779L54.6329 59.59L42.5505 47.5076C39.5086 44.4657 34.5571 44.4657 31.5153 47.5076L17.7872 61.2326C16.0683 62.9516 16.0683 65.7353 17.7872 67.4542C19.5062 69.1732 22.2899 69.1732 24.0088 67.4542L37.0299 54.4332L49.1123 66.5156C50.6347 68.038 52.6294 68.7977 54.6299 68.7977C56.6305 68.7977 58.6251 68.035 60.1475 66.5156L78.0966 48.5665V58.4782C78.0966 60.907 80.0678 62.8782 82.4966 62.8782C84.9254 62.8782 86.8966 60.907 86.8966 58.4782V43.8116C86.8966 38.1503 82.2942 33.5449 76.6329 33.5449Z" fill="white"/>
</svg>
