<svg width="38" height="41" viewBox="0 0 38 41" fill="none" xmlns="http://www.w3.org/2000/svg">
<path opacity="0.6" d="M33.687 20.344C33.687 20.2469 33.686 20.1498 33.684 20.0527C33.6546 18.6117 34.2771 17.1839 35.5298 16.4711C37.1663 15.54 37.7303 13.4536 36.7858 11.8247L35.25 9.17606C34.302 7.54111 32.2131 6.9764 30.5704 7.91103C29.3127 8.62664 27.7602 8.44451 26.5206 7.69797C26.3253 7.58036 26.1272 7.46717 25.9265 7.3585C24.6599 6.67264 23.729 5.42261 23.729 3.9822C23.729 2.11095 22.212 0.593994 20.3408 0.593994H17.1592C15.288 0.593994 13.771 2.11095 13.771 3.9822C13.771 5.42261 12.8401 6.67264 11.5735 7.3585C11.3728 7.46717 11.1747 7.58036 10.9794 7.69797C9.73984 8.44451 8.18725 8.62664 6.92957 7.91103C5.28695 6.9764 3.19797 7.54111 2.24997 9.17606L0.711719 11.829C-0.231371 13.4555 0.331828 15.5389 1.96595 16.4687C3.22039 17.1824 3.84468 18.6146 3.81589 20.0576C3.81398 20.1532 3.81303 20.2487 3.81303 20.344C3.81303 20.4411 3.81402 20.5382 3.816 20.6353C3.84538 22.0762 3.22291 23.5041 1.97022 24.2169C0.333744 25.148 -0.230266 27.2344 0.714181 28.8633L2.24997 31.5119C3.19797 33.1469 5.28695 33.7116 6.92957 32.777C8.18725 32.0613 9.73984 32.2435 10.9794 32.99C11.1747 33.1076 11.3728 33.2208 11.5735 33.3295C12.8401 34.0154 13.771 35.2654 13.771 36.7058C13.771 38.577 15.288 40.094 17.1592 40.094H20.3408C22.212 40.094 23.729 38.577 23.729 36.7058C23.729 35.2654 24.6599 34.0154 25.9265 33.3295C26.1272 33.2208 26.3253 33.1076 26.5206 32.99C27.7602 32.2435 29.3127 32.0613 30.5704 32.777C32.2131 33.7116 34.302 33.1469 35.25 31.5119L36.7883 28.859C37.7314 27.2325 37.1682 25.1491 35.534 24.2193C34.2796 23.5056 33.6553 22.0734 33.6841 20.6304C33.686 20.5348 33.687 20.4393 33.687 20.344ZM32.5226 26.3012C33.3191 26.7547 33.5924 27.7711 33.1309 28.5629C32.6759 29.3435 31.6772 29.6121 30.892 29.1651L29.0515 28.1172C28.3984 27.7453 27.5771 27.8581 27.0483 28.3921C25.5712 29.8898 23.7124 30.9596 21.6544 31.4863C20.9227 31.6701 20.4097 32.328 20.4097 33.0824V35.1427C20.4097 36.0593 19.6666 36.8023 18.75 36.8023C17.8334 36.8023 17.0903 36.0593 17.0903 35.1427V33.0824C17.0903 32.328 16.5773 31.6701 15.8456 31.4863C13.7876 30.9596 11.9288 29.8898 10.4517 28.3921C9.92293 27.8581 9.10158 27.7453 8.4485 28.1172L6.608 29.1651C5.82284 29.6121 4.82414 29.3435 4.36915 28.5629C3.90757 27.7711 4.18091 26.7547 4.97743 26.3012L6.78117 25.2742C7.43587 24.9015 7.75199 24.1303 7.54727 23.4052C7.26513 22.3848 7.11576 21.348 7.11576 20.344C7.11576 19.34 7.26513 18.3196 7.54727 17.2827C7.75199 16.5577 7.43587 15.7865 6.78117 15.4137L4.97743 14.3868C4.18091 13.9333 3.90757 12.9169 4.36915 12.1251C4.82414 11.3445 5.82284 11.0759 6.608 11.5229L8.4485 12.5708C9.10158 12.9427 9.92293 12.8299 10.4517 12.2959C11.9288 10.7982 13.7876 9.72837 15.8456 9.2017C16.5773 9.01788 17.0903 8.36004 17.0903 7.60557V5.54533C17.0903 4.62872 17.8334 3.88566 18.75 3.88566C19.6666 3.88566 20.4097 4.62872 20.4097 5.54532V7.60557C20.4097 8.36003 20.9227 9.01788 21.6544 9.2017C23.7124 9.72837 25.5712 10.7982 27.0483 12.2959C27.5771 12.8299 28.3984 12.9427 29.0515 12.5708L30.892 11.5229C31.6772 11.0759 32.6759 11.3445 33.1309 12.1251C33.5924 12.9169 33.3191 13.9333 32.5226 14.3868L30.7188 15.4137C30.0641 15.7865 29.748 16.5577 29.9527 17.2827C30.2349 18.3032 30.3842 19.34 30.3842 20.344C30.3842 21.348 30.2349 22.3684 29.9527 23.4052C29.748 24.1303 30.0641 24.9015 30.7188 25.2742L32.5226 26.3012ZM18.4568 13.404C18.6373 12.5091 19.5072 11.9285 20.4028 12.1053C21.3038 12.283 21.8886 13.1593 21.707 14.0595L19.0432 27.2676C18.8627 28.1624 17.9928 28.743 17.0972 28.5663C16.1962 28.3885 15.6114 27.5122 15.793 26.6121L18.4568 13.404ZM14.9494 17.6037C14.9494 17.6089 14.9473 17.614 14.9435 17.6177L13.5222 19.0272C12.7463 19.7967 12.75 21.0522 13.5304 21.817L13.7592 22.0413C14.4137 22.6828 14.4168 23.7358 13.7661 24.3812C13.1256 25.0163 12.0929 25.0163 11.4524 24.3812L9.77122 22.714C8.47668 21.4302 8.47668 19.3565 9.77122 18.0892L10.9615 16.9089C11.8737 16.0042 13.3448 16.0042 14.257 16.9089L14.9435 17.5897C14.9473 17.5934 14.9494 17.5984 14.9494 17.6037ZM27.7454 18.1057C29.0399 19.3894 29.0399 21.4632 27.7454 22.7305L26.0676 24.3942C25.4253 25.0312 24.3894 25.0312 23.7471 24.3942C23.0971 23.7496 23.0971 22.6988 23.7471 22.0542L23.9903 21.8129C24.7692 21.0406 24.7673 19.7809 23.9862 19.0109L23.7522 18.7802C23.0999 18.1371 23.0984 17.0852 23.7488 16.4402C24.3902 15.8041 25.4245 15.8041 26.0659 16.4402L27.7454 18.1057Z" fill="#FFFBFB"/>
</svg>
