<svg width="40" height="40" viewBox="0 0 40 40" fill="none" xmlns="http://www.w3.org/2000/svg">
<g opacity="0.6" clip-path="url(#clip0_206_94)">
<path d="M9.89547 18.2886C9.89822 17.8322 9.71441 17.7809 9.39171 17.4582L5.28477 13.3512C4.76798 12.8344 4.44704 12.0675 4.33019 11.0718L4.27786 10.626C4.22541 10.1792 4.02383 9.76309 3.70571 9.44497L2.80919 8.54845C1.77253 7.51179 0 8.24599 0 9.71205C0 10.1485 0.173374 10.567 0.481981 10.8757L0.57631 10.97C0.889524 11.2832 1.08009 11.6945 1.16433 12.1293C1.41461 13.4213 1.96217 14.683 2.95756 15.6784L7.10641 19.8273C8.13195 20.8528 9.88672 19.7389 9.89547 18.2886Z" fill="white"/>
<path d="M9.42018 6.67733C9.95061 6.67733 10.4593 6.88804 10.8344 7.26311L16.0275 12.4562C16.4917 12.9204 17.2353 12.8949 17.7756 12.522C18.5529 11.9855 18.9578 10.7321 18.29 10.0643L17.1403 8.91465C16.5309 8.30524 16.9625 7.26324 17.8244 7.26324C18.356 7.26324 18.8366 7.04764 19.1855 6.70037C19.5344 6.35145 19.75 5.87087 19.75 5.33927C19.75 4.27606 18.8876 3.38731 17.8244 3.38731H7.87559C7.34533 3.38731 6.83678 3.17673 6.46173 2.80187L4.33823 0.679427C3.96318 0.30457 3.45463 0.0939941 2.92437 0.0939941H0.6388C0.286 0.0939941 0 0.379995 0 0.732794C0 0.902311 0.0673782 1.06488 0.187297 1.18469L5.09903 6.09216C5.47405 6.46685 5.98249 6.67733 6.51263 6.67733H9.42018Z" fill="white"/>
<path d="M26.3332 18.1982C25.4247 18.1982 24.6874 18.9355 24.6874 19.844V25.193C24.6874 25.8747 24.1348 26.4273 23.453 26.4273C22.7713 26.4273 22.2187 25.8747 22.2187 25.193V16.5523C22.2187 15.6438 21.4813 14.9065 20.5728 14.9065C19.6643 14.9065 18.927 15.6438 18.927 16.5523V25.193C18.927 25.8747 18.3743 26.4273 17.6926 26.4273C17.0109 26.4273 16.4582 25.8747 16.4582 25.193V18.1982C16.4582 17.2897 15.7209 16.5523 14.8124 16.5523C13.9039 16.5523 13.1666 17.2897 13.1666 18.1982V27.9539C13.1666 28.8154 12.125 29.2469 11.5158 28.6377C11.1406 28.2624 10.6468 28.0732 10.1547 28.0732C9.6626 28.0732 9.16885 28.2608 8.7936 28.6377C8.04146 29.3898 8.04146 30.6077 8.7936 31.3599L16.3203 38.801C16.4086 38.8882 16.4582 39.0071 16.4582 39.1312C16.4582 39.3877 16.6662 39.5956 16.9227 39.5956H18.3161C19.108 39.5956 19.7499 38.9537 19.7499 38.1618C19.7499 37.7787 19.5966 37.4114 19.3241 37.1421L17.0522 34.8964C16.6721 34.5207 16.4582 34.0085 16.4582 33.474V31.7206C16.4582 30.6161 17.3537 29.7206 18.4582 29.7206H22.6874C23.792 29.7206 24.6874 30.6161 24.6874 31.7206V33.6213C24.6874 34.352 24.3714 35.1223 23.7509 35.909L23.4728 36.2606C23.1935 36.6138 23.0416 37.0509 23.0416 37.5012V37.9498C23.0416 38.8588 23.7784 39.5956 24.6874 39.5956H25.1118C25.7864 39.5956 26.3332 39.0488 26.3332 38.3742C26.3332 38.0993 26.4284 37.8342 26.5888 37.611C27.4052 36.4752 27.9791 35.1215 27.9791 33.6213V19.844C27.9791 18.9355 27.2417 18.1982 26.3332 18.1982Z" fill="white"/>
<path d="M39.4997 6.41371C39.4997 4.94765 37.7272 4.21345 36.6905 5.25011L35.1478 6.79285C34.7699 7.17071 34.559 7.68407 34.562 8.21844L34.5789 11.1764C34.5819 11.7107 34.371 12.2241 33.9931 12.6019L29.944 16.651C29.8304 16.7647 29.8304 16.9489 29.944 17.0625C30.2506 17.37 30.4739 17.7404 30.6364 18.1169C30.9463 18.8348 32.0179 19.2332 32.5708 18.6803C33.1235 18.1276 34.0685 18.5191 34.0685 19.3006V19.5181C34.0685 20.0497 34.2841 20.5303 34.6313 20.8792C34.9786 21.2281 35.4608 21.4437 35.9924 21.4437C37.0557 21.4437 37.9181 20.5813 37.9181 19.5181L37.8604 9.57474C37.8573 9.04029 38.0682 8.52684 38.4461 8.14892L39.0177 7.57732C39.3263 7.26871 39.4997 6.85015 39.4997 6.41371Z" fill="white"/>
<path d="M30.7081 5.96996C31.1549 5.9175 31.571 5.71593 31.8891 5.39781L34.3838 2.90318C35.4204 1.86652 34.6862 0.0939941 33.2202 0.0939941C32.7837 0.0939941 32.3652 0.267368 32.0566 0.575975L30.3721 2.26046C30.0537 2.57882 29.6357 2.77238 29.1937 2.85857C27.9056 3.10983 26.6482 3.6571 25.6557 4.64966L22.7574 7.54797C22.1147 8.19061 22.1147 9.23254 22.7574 9.87518C23.4 10.5178 24.4419 10.5178 25.0846 9.87518L27.9829 6.97687C28.4997 6.46008 29.2666 6.13914 30.2624 6.02229L30.7081 5.96996Z" fill="white"/>
</g>
<defs>
<clipPath id="clip0_206_94">
<rect width="39.5" height="39.5" fill="white" transform="translate(0 0.0939941)"/>
</clipPath>
</defs>
</svg>
