<svg width="40" height="41" viewBox="0 0 40 41" fill="none" xmlns="http://www.w3.org/2000/svg">
<path opacity="0.6" d="M4.9375 8.67354C4.9375 7.1869 6.0435 5.98036 7.40625 5.98036C8.769 5.98036 9.875 7.1869 9.875 8.67354C9.875 10.1602 8.769 11.3667 7.40625 11.3667C6.0435 11.3667 4.9375 10.1602 4.9375 8.67354ZM13.9896 11.3667C15.3523 11.3667 16.4583 10.1602 16.4583 8.67354C16.4583 7.1869 15.3523 5.98036 13.9896 5.98036C12.6268 5.98036 11.5208 7.1869 11.5208 8.67354C11.5208 10.1602 12.6268 11.3667 13.9896 11.3667ZM39.5 9.57127V31.1167C39.5 36.0668 35.8084 40.094 31.2708 40.094H8.22917C3.6916 40.094 0 36.0668 0 31.1167V9.57127C0 4.6212 3.6916 0.593994 8.22917 0.593994H31.2708C35.8084 0.593994 39.5 4.6212 39.5 9.57127ZM3.29167 9.57127C3.29167 11.5545 4.89937 13.1622 6.88258 13.1622H32.6174C34.6006 13.1622 36.2083 11.5545 36.2083 9.57127C36.2083 6.60158 33.993 4.1849 31.2708 4.1849H8.22917C5.50696 4.1849 3.29167 6.60158 3.29167 9.57127ZM23.0417 20.7929C23.0417 18.5618 21.233 16.7531 19.0019 16.7531H7.33144C5.10033 16.7531 3.29167 18.5618 3.29167 20.7929C3.29167 23.024 5.10033 24.8326 7.33144 24.8326H19.0019C21.233 24.8326 23.0417 23.024 23.0417 20.7929ZM8.22917 36.5031H19.0019C21.233 36.5031 23.0417 34.6944 23.0417 32.4633C23.0417 30.2322 21.233 28.4235 19.0019 28.4235H5.98485C4.49745 28.4235 3.29167 29.6293 3.29167 31.1167C3.29167 34.0864 5.50696 36.5031 8.22917 36.5031ZM36.2083 31.1167V21.6906C36.2083 18.9637 33.9977 16.7531 31.2708 16.7531C28.5439 16.7531 26.3333 18.9637 26.3333 21.6906V31.5656C26.3333 34.2925 28.5439 36.5031 31.2708 36.5031C33.993 36.5031 36.2083 34.0864 36.2083 31.1167Z" fill="white"/>
</svg>
