<svg width="38" height="38" viewBox="0 0 38 38" fill="none" xmlns="http://www.w3.org/2000/svg">
<rect width="38" height="38" rx="19" fill="url(#paint0_linear_569_72)"/>
<g clip-path="url(#clip0_569_72)">
<path opacity="0.8" d="M19 31C21.3734 31 23.6935 30.2962 25.6668 28.9776C27.6402 27.6591 29.1783 25.7849 30.0866 23.5922C30.9948 21.3995 31.2324 18.9867 30.7694 16.6589C30.3064 14.3312 29.1635 12.193 27.4853 10.5147C25.8071 8.83649 23.6689 7.6936 21.3411 7.23058C19.0133 6.76756 16.6005 7.0052 14.4078 7.91345C12.2151 8.8217 10.3409 10.3598 9.02236 12.3332C7.70379 14.3066 7 16.6266 7 19C7.00344 22.1815 8.26883 25.2318 10.5185 27.4815C12.7682 29.7312 15.8185 30.9966 19 31ZM19 12C19.2967 12 19.5867 12.088 19.8334 12.2528C20.08 12.4176 20.2723 12.6519 20.3858 12.926C20.4994 13.2001 20.5291 13.5017 20.4712 13.7926C20.4133 14.0836 20.2704 14.3509 20.0607 14.5607C19.8509 14.7704 19.5836 14.9133 19.2926 14.9712C19.0017 15.0291 18.7001 14.9994 18.426 14.8858C18.1519 14.7723 17.9176 14.58 17.7528 14.3334C17.588 14.0867 17.5 13.7967 17.5 13.5C17.5 13.1022 17.658 12.7206 17.9393 12.4393C18.2206 12.158 18.6022 12 19 12ZM18 17H19C19.5304 17 20.0391 17.2107 20.4142 17.5858C20.7893 17.9609 21 18.4696 21 19V25C21 25.2652 20.8946 25.5196 20.7071 25.7071C20.5196 25.8946 20.2652 26 20 26C19.7348 26 19.4804 25.8946 19.2929 25.7071C19.1054 25.5196 19 25.2652 19 25V19H18C17.7348 19 17.4804 18.8946 17.2929 18.7071C17.1054 18.5196 17 18.2652 17 18C17 17.7348 17.1054 17.4804 17.2929 17.2929C17.4804 17.1054 17.7348 17 18 17Z" fill="white"/>
</g>
<defs>
<linearGradient id="paint0_linear_569_72" x1="19" y1="0" x2="19" y2="38" gradientUnits="userSpaceOnUse">
<stop stop-color="#FFC633"/>
<stop offset="1" stop-color="#FF6800"/>
</linearGradient>
<clipPath id="clip0_569_72">
<rect width="24" height="24" fill="white" transform="translate(7 7)"/>
</clipPath>
</defs>
</svg>
