<svg width="1467" height="925" viewBox="0 0 1467 925" fill="none" xmlns="http://www.w3.org/2000/svg">
<g filter="url(#filter0_df_309_37)">
<path d="M1149.36 93.3092C1199.28 96.9341 1238.44 135.083 1276.02 168.145C1312.09 199.868 1346.05 234.876 1361.84 280.233C1377.72 325.829 1377.53 375.636 1364.48 422.122C1351.66 467.8 1371.21 580.956 1334.11 610.521C1298.57 638.84 1208.23 616.224 1163.4 623.652C1119.34 630.953 1072.27 600.379 1031.51 582.116C991.201 564.053 969.316 522.171 945.031 485.272C921.423 449.403 898.153 413.141 892.304 370.6C886.08 325.326 888.92 277.605 910.976 237.579C933.312 197.045 974.742 173.106 1014.34 149.143C1056.86 123.405 1099.78 89.7092 1149.36 93.3092Z" fill="url(#paint0_radial_309_37)"/>
<path d="M1149.36 93.3092C1199.28 96.9341 1238.44 135.083 1276.02 168.145C1312.09 199.868 1346.05 234.876 1361.84 280.233C1377.72 325.829 1377.53 375.636 1364.48 422.122C1351.66 467.8 1371.21 580.956 1334.11 610.521C1298.57 638.84 1208.23 616.224 1163.4 623.652C1119.34 630.953 1072.27 600.379 1031.51 582.116C991.201 564.053 969.316 522.171 945.031 485.272C921.423 449.403 898.153 413.141 892.304 370.6C886.08 325.326 888.92 277.605 910.976 237.579C933.312 197.045 974.742 173.106 1014.34 149.143C1056.86 123.405 1099.78 89.7092 1149.36 93.3092Z" fill="url(#paint1_radial_309_37)"/>
<path d="M1072.24 96.3782C1095.72 84.5622 1121.76 75.7649 1150.48 77.8499L1151.82 77.9543C1179.95 80.3077 1204.42 92.1415 1226.05 106.879C1247.79 121.695 1267.95 140.397 1286.26 156.507L1289.67 159.521C1324.89 190.827 1359.81 227.281 1376.48 275.135L1377.27 277.433C1393.26 324.974 1393 376.271 1380.04 424.003L1379.4 426.311C1376.77 435.714 1375.59 449.629 1375.04 467.159C1374.77 475.742 1374.65 484.798 1374.52 494.23C1374.39 503.603 1374.23 513.308 1373.89 522.92C1373.2 541.994 1371.74 561.552 1367.8 578.531C1364.02 594.873 1357.38 611.435 1344.39 622.138L1343.77 622.643C1331.74 632.227 1316.24 636.683 1300.89 638.826C1285.35 640.996 1268.25 641.013 1251.68 640.41C1243.34 640.107 1234.96 639.638 1226.86 639.174C1218.7 638.707 1210.86 638.246 1203.35 637.936C1188.57 637.325 1176.23 637.366 1166.84 638.8L1165.94 638.944C1139.69 643.293 1113.68 636.219 1090.43 626.847C1078.68 622.113 1067.16 616.592 1056.29 611.25C1045.93 606.163 1036.32 601.324 1027.03 597.098L1025.17 596.261C1001.82 585.797 984.406 568.681 970.047 550.299C956.87 533.431 945.164 513.92 934.255 497.116L932.083 493.793C909.11 458.887 884.141 420.475 877.263 374.888L876.949 372.711C870.482 325.671 873.118 274.165 897.4 230.099L897.984 229.05C922.851 184.801 968.075 159.024 1006.31 135.883L1008.2 134.734C1027.8 122.757 1050.03 107.55 1072.24 96.3782Z" stroke="#FF5100" stroke-width="31"/>
</g>
<g filter="url(#filter1_df_309_37)">
<path d="M777.356 138.309C827.28 141.934 866.442 180.083 904.025 213.145C940.086 244.868 974.046 279.876 989.844 325.233C1005.72 370.829 1005.53 420.636 992.481 467.122C979.661 512.8 999.209 625.956 962.106 655.521C926.567 683.84 836.233 661.224 791.402 668.652C747.341 675.953 700.27 645.379 659.513 627.116C619.201 609.053 597.316 567.171 573.031 530.272C549.423 494.403 526.153 458.141 520.304 415.6C514.08 370.326 516.92 322.605 538.976 282.579C561.312 242.045 602.742 218.106 642.336 194.143C684.864 168.405 727.777 134.709 777.356 138.309Z" fill="url(#paint2_radial_309_37)"/>
<path d="M777.356 138.309C827.28 141.934 866.442 180.083 904.025 213.145C940.086 244.868 974.046 279.876 989.844 325.233C1005.72 370.829 1005.53 420.636 992.481 467.122C979.661 512.8 999.209 625.956 962.106 655.521C926.567 683.84 836.233 661.224 791.402 668.652C747.341 675.953 700.27 645.379 659.513 627.116C619.201 609.053 597.316 567.171 573.031 530.272C549.423 494.403 526.153 458.141 520.304 415.6C514.08 370.326 516.92 322.605 538.976 282.579C561.312 242.045 602.742 218.106 642.336 194.143C684.864 168.405 727.777 134.709 777.356 138.309Z" fill="url(#paint3_radial_309_37)"/>
<path d="M700.235 141.378C723.719 129.562 749.764 120.765 778.479 122.85L779.821 122.954C807.948 125.308 832.415 137.141 854.046 151.879C875.792 166.695 895.949 185.397 914.263 201.507L917.671 204.521C952.888 235.827 987.815 272.281 1004.48 320.135L1005.27 322.433C1021.26 369.974 1021 421.271 1008.04 469.003L1007.4 471.311C1004.77 480.714 1003.59 494.629 1003.04 512.159C1002.77 520.742 1002.65 529.798 1002.52 539.23C1002.39 548.603 1002.23 558.308 1001.89 567.92C1001.2 586.994 999.735 606.552 995.803 623.531C992.018 639.873 985.383 656.435 972.389 667.138L971.766 667.643C959.738 677.227 944.236 681.683 928.889 683.826C913.354 685.996 896.245 686.013 879.676 685.41C871.337 685.107 862.959 684.638 854.857 684.174C846.701 683.707 838.862 683.246 831.351 682.936C816.575 682.325 804.231 682.366 794.836 683.8L793.936 683.944C767.688 688.293 741.684 681.219 718.426 671.847C706.677 667.113 695.163 661.592 684.286 656.25C673.928 651.163 664.315 646.324 655.028 642.098L653.175 641.261C629.821 630.797 612.406 613.681 598.047 595.299C584.87 578.431 573.164 558.92 562.255 542.116L560.083 538.793C537.11 503.887 512.141 465.475 505.263 419.888L504.949 417.711C498.482 370.671 501.118 319.165 525.4 275.099L525.984 274.05C550.851 229.801 596.075 204.024 634.311 180.883L636.199 179.734C655.803 167.757 678.032 152.55 700.235 141.378Z" stroke="#FF5100" stroke-width="31"/>
</g>
<g filter="url(#filter2_df_309_37)">
<path d="M737.07 298.259C774.712 344.997 773.282 410.528 775.023 470.514C776.693 528.072 773.765 586.474 746.911 637.411C719.916 688.617 676.083 729.169 624.655 755.74C574.123 781.848 516.418 793.923 460.157 785.564C406.267 777.557 384.8 742.453 302.606 755.465C295.045 688.765 295.252 649.36 180.935 595.524C328.483 557.312 164.658 508.703 177.156 457.238C261.06 452.269 158.391 293.26 190.909 253.348C225.517 210.871 373.777 255.568 373.486 173.407C427.29 159.849 524.328 210.398 577.713 225.522C635.054 241.767 699.688 251.843 737.07 298.259Z" fill="url(#paint4_radial_309_37)"/>
<path d="M737.07 298.259C774.712 344.997 773.282 410.528 775.023 470.514C776.693 528.072 773.765 586.474 746.911 637.411C719.916 688.617 676.083 729.169 624.655 755.74C574.123 781.848 516.418 793.923 460.157 785.564C406.267 777.557 384.8 742.453 302.606 755.465C295.045 688.765 295.252 649.36 180.935 595.524C328.483 557.312 164.658 508.703 177.156 457.238C261.06 452.269 158.391 293.26 190.909 253.348C225.517 210.871 373.777 255.568 373.486 173.407C427.29 159.849 524.328 210.398 577.713 225.522C635.054 241.767 699.688 251.843 737.07 298.259Z" fill="url(#paint5_radial_309_37)"/>
<path d="M670.251 236.038C699.553 246.872 727.982 262.263 749.142 288.536L750.126 289.772C770.611 315.788 780.11 346.34 784.829 377.065C789.582 408.005 789.665 440.707 790.516 470.064L790.661 475.508C792.002 531.873 788.57 591.627 760.622 644.64L759.948 645.911C731.7 698.805 686.681 740.554 634.291 768.195L631.77 769.51C579.194 796.673 518.76 809.596 459.285 801.1L457.879 800.896C428.907 796.591 406.272 784.329 386.69 777.197C366.507 769.845 343.252 764.723 305.03 770.774L289.029 773.307L287.205 757.211C283.28 722.589 281.574 700.082 268.568 678.736C255.754 657.705 230.546 636.021 174.332 609.547L135.527 591.272L177.05 580.519C194.915 575.892 207.219 571.313 215.404 567.006C223.764 562.606 226.37 559.252 227.084 557.879C227.399 557.275 227.76 556.544 226.83 554.142C225.672 551.151 222.978 547.082 218.151 541.699C213.426 536.431 207.63 530.942 201.127 524.809C194.829 518.867 187.883 512.333 181.768 505.625C170.546 493.314 156.892 475.002 162.094 453.58L164.798 442.443L176.239 441.765C184.19 441.294 187.992 439.15 189.963 437.322C191.989 435.443 193.866 432.243 194.836 426.37C196.931 413.693 193.873 395.046 188.248 372.085C182.995 350.649 175.431 325.261 171.59 304.115C169.626 293.305 168.379 282.424 168.949 272.477C169.496 262.929 171.802 252.734 178.255 244.362L178.892 243.558C191.502 228.081 212.607 222.295 231.577 219.194C250.768 216.057 274.488 214.887 293.642 212.846C314.273 210.649 331.016 207.395 342.4 201.048C347.792 198.042 351.488 194.597 353.905 190.628C356.293 186.705 358.014 181.318 357.986 173.462L357.943 161.339L369.698 158.377C386.184 154.223 404.809 155.2 423.265 158.437C441.899 161.705 461.601 167.509 480.757 174.037C499.919 180.567 519.066 188.009 536.371 194.61C553.922 201.304 569.361 207.046 581.938 210.609L584.513 211.333C611.268 218.793 642.437 225.755 670.251 236.038Z" stroke="#FF5100" stroke-width="31"/>
</g>
<defs>
<filter id="filter0_df_309_37" x="796.516" y="0.132744" width="670.423" height="718.027" filterUnits="userSpaceOnUse" color-interpolation-filters="sRGB">
<feFlood flood-opacity="0" result="BackgroundImageFix"/>
<feColorMatrix in="SourceAlpha" type="matrix" values="0 0 0 0 0 0 0 0 0 0 0 0 0 0 0 0 0 0 127 0" result="hardAlpha"/>
<feMorphology radius="16.1289" operator="dilate" in="SourceAlpha" result="effect1_dropShadow_309_37"/>
<feOffset/>
<feGaussianBlur stdDeviation="22.8906"/>
<feComposite in2="hardAlpha" operator="out"/>
<feColorMatrix type="matrix" values="0 0 0 0 1 0 0 0 0 0.427451 0 0 0 0 0.00784314 0 0 0 1 0"/>
<feBlend mode="normal" in2="BackgroundImageFix" result="effect1_dropShadow_309_37"/>
<feBlend mode="normal" in="SourceGraphic" in2="effect1_dropShadow_309_37" result="shape"/>
<feGaussianBlur stdDeviation="15.45" result="effect2_foregroundBlur_309_37"/>
</filter>
<filter id="filter1_df_309_37" x="424.516" y="45.1327" width="670.423" height="718.027" filterUnits="userSpaceOnUse" color-interpolation-filters="sRGB">
<feFlood flood-opacity="0" result="BackgroundImageFix"/>
<feColorMatrix in="SourceAlpha" type="matrix" values="0 0 0 0 0 0 0 0 0 0 0 0 0 0 0 0 0 0 127 0" result="hardAlpha"/>
<feMorphology radius="16.1289" operator="dilate" in="SourceAlpha" result="effect1_dropShadow_309_37"/>
<feOffset/>
<feGaussianBlur stdDeviation="22.8906"/>
<feComposite in2="hardAlpha" operator="out"/>
<feColorMatrix type="matrix" values="0 0 0 0 1 0 0 0 0 0.427451 0 0 0 0 0.00784314 0 0 0 1 0"/>
<feBlend mode="normal" in2="BackgroundImageFix" result="effect1_dropShadow_309_37"/>
<feBlend mode="normal" in="SourceGraphic" in2="effect1_dropShadow_309_37" result="shape"/>
<feGaussianBlur stdDeviation="15.45" result="effect2_foregroundBlur_309_37"/>
</filter>
<filter id="filter2_df_309_37" x="28.2101" y="78.2117" width="840.107" height="802.886" filterUnits="userSpaceOnUse" color-interpolation-filters="sRGB">
<feFlood flood-opacity="0" result="BackgroundImageFix"/>
<feColorMatrix in="SourceAlpha" type="matrix" values="0 0 0 0 0 0 0 0 0 0 0 0 0 0 0 0 0 0 127 0" result="hardAlpha"/>
<feMorphology radius="16.1289" operator="dilate" in="SourceAlpha" result="effect1_dropShadow_309_37"/>
<feOffset/>
<feGaussianBlur stdDeviation="22.8906"/>
<feComposite in2="hardAlpha" operator="out"/>
<feColorMatrix type="matrix" values="0 0 0 0 1 0 0 0 0 0.427451 0 0 0 0 0.00784314 0 0 0 1 0"/>
<feBlend mode="normal" in2="BackgroundImageFix" result="effect1_dropShadow_309_37"/>
<feBlend mode="normal" in="SourceGraphic" in2="effect1_dropShadow_309_37" result="shape"/>
<feGaussianBlur stdDeviation="15.45" result="effect2_foregroundBlur_309_37"/>
</filter>
<radialGradient id="paint0_radial_309_37" cx="0" cy="0" r="1" gradientUnits="userSpaceOnUse" gradientTransform="translate(1131.73 359.146) rotate(92.847) scale(436.216 397.403)">
<stop stop-color="#FFC400"/>
<stop offset="1" stop-color="#E70000"/>
</radialGradient>
<radialGradient id="paint1_radial_309_37" cx="0" cy="0" r="1" gradientUnits="userSpaceOnUse" gradientTransform="translate(1131.73 359.146) rotate(92.847) scale(436.216 397.403)">
<stop stop-color="#FFC533"/>
<stop offset="1" stop-color="#FF6A01"/>
</radialGradient>
<radialGradient id="paint2_radial_309_37" cx="0" cy="0" r="1" gradientUnits="userSpaceOnUse" gradientTransform="translate(759.726 404.146) rotate(92.847) scale(436.216 397.403)">
<stop stop-color="#FFC400"/>
<stop offset="1" stop-color="#E70000"/>
</radialGradient>
<radialGradient id="paint3_radial_309_37" cx="0" cy="0" r="1" gradientUnits="userSpaceOnUse" gradientTransform="translate(759.726 404.146) rotate(92.847) scale(436.216 397.403)">
<stop stop-color="#FFC533"/>
<stop offset="1" stop-color="#FF6A01"/>
</radialGradient>
<radialGradient id="paint4_radial_309_37" cx="0" cy="0" r="1" gradientUnits="userSpaceOnUse" gradientTransform="translate(460.504 463) rotate(140.35) scale(516.518 553.266)">
<stop stop-color="#FFC400"/>
<stop offset="1" stop-color="#E70000"/>
</radialGradient>
<radialGradient id="paint5_radial_309_37" cx="0" cy="0" r="1" gradientUnits="userSpaceOnUse" gradientTransform="translate(460.504 463) rotate(140.35) scale(516.518 553.266)">
<stop stop-color="#FFC533"/>
<stop offset="1" stop-color="#FF6A01"/>
</radialGradient>
</defs>
</svg>
