<svg width="1318" height="155" viewBox="0 0 1318 155" fill="none" xmlns="http://www.w3.org/2000/svg">
<g filter="url(#filter0_dfn_543_314)">
<ellipse cx="674.981" cy="-186.474" rx="696.517" ry="248.095" fill="url(#paint0_radial_543_314)"/>
<path d="M674.981 -450.078C868.612 -450.078 1044.58 -422.147 1172.7 -376.513C1236.69 -353.721 1289.57 -326.219 1326.75 -294.906C1363.86 -263.656 1387.01 -227.081 1387.01 -186.474C1387.01 -145.867 1363.86 -109.291 1326.75 -78.0415C1289.57 -46.7284 1236.69 -19.2276 1172.7 3.56494C1044.58 49.1986 868.612 77.1294 674.981 77.1294C481.351 77.1294 305.38 49.1985 177.266 3.56494C113.276 -19.2276 60.3929 -46.7285 23.21 -78.0415C-13.8977 -109.291 -37.0449 -145.867 -37.0449 -186.474C-37.0449 -227.081 -13.8976 -263.656 23.21 -294.906C60.3929 -326.219 113.276 -353.721 177.266 -376.513C305.38 -422.147 481.351 -450.078 674.981 -450.078Z" stroke="#FF5100" stroke-width="31.017"/>
</g>
<defs>
<filter id="filter0_dfn_543_314" x="-114.463" y="-527.496" width="1578.89" height="682.044" filterUnits="userSpaceOnUse" color-interpolation-filters="sRGB">
<feFlood flood-opacity="0" result="BackgroundImageFix"/>
<feColorMatrix in="SourceAlpha" type="matrix" values="0 0 0 0 0 0 0 0 0 0 0 0 0 0 0 0 0 0 127 0" result="hardAlpha"/>
<feMorphology radius="16.1289" operator="dilate" in="SourceAlpha" result="effect1_dropShadow_543_314"/>
<feOffset/>
<feGaussianBlur stdDeviation="22.8906"/>
<feComposite in2="hardAlpha" operator="out"/>
<feColorMatrix type="matrix" values="0 0 0 0 1 0 0 0 0 0.427451 0 0 0 0 0.00784314 0 0 0 1 0"/>
<feBlend mode="normal" in2="BackgroundImageFix" result="effect1_dropShadow_543_314"/>
<feBlend mode="normal" in="SourceGraphic" in2="effect1_dropShadow_543_314" result="shape"/>
<feGaussianBlur stdDeviation="20.2231" result="effect2_foregroundBlur_543_314"/>
<feTurbulence type="fractalNoise" baseFrequency="1.4285714626312256 1.4285714626312256" stitchTiles="stitch" numOctaves="3" result="noise" seed="110" />
<feColorMatrix in="noise" type="luminanceToAlpha" result="alphaNoise" />
<feComponentTransfer in="alphaNoise" result="coloredNoise1">
<feFuncA type="discrete" tableValues="1 1 1 1 1 1 1 1 1 1 1 1 1 1 1 1 1 1 1 1 1 1 1 1 1 1 1 1 1 1 1 1 1 1 1 1 1 1 1 1 1 1 1 1 1 1 1 1 1 1 1 0 0 0 0 0 0 0 0 0 0 0 0 0 0 0 0 0 0 0 0 0 0 0 0 0 0 0 0 0 0 0 0 0 0 0 0 0 0 0 0 0 0 0 0 0 0 0 0 0 "/>
</feComponentTransfer>
<feComposite operator="in" in2="effect2_foregroundBlur_543_314" in="coloredNoise1" result="noise1Clipped" />
<feFlood flood-color="rgba(0, 0, 0, 0.25)" result="color1Flood" />
<feComposite operator="in" in2="noise1Clipped" in="color1Flood" result="color1" />
<feMerge result="effect3_noise_543_314">
<feMergeNode in="effect2_foregroundBlur_543_314" />
<feMergeNode in="color1" />
</feMerge>
</filter>
<radialGradient id="paint0_radial_543_314" cx="0" cy="0" r="1" gradientUnits="userSpaceOnUse" gradientTransform="translate(674.981 -186.474) rotate(98.7173) scale(410.941 1130.56)">
<stop stop-color="#FFC533"/>
<stop offset="1" stop-color="#FF6A01"/>
</radialGradient>
</defs>
</svg>
