<svg width="26" height="25" viewBox="0 0 26 25" fill="none" xmlns="http://www.w3.org/2000/svg">
<path d="M20.5 2.81348H5.5C3.019 2.81348 1 4.83248 1 7.31348V18.3135C1 20.7945 3.019 22.8135 5.5 22.8135H20.5C22.981 22.8135 25 20.7945 25 18.3135V7.31348C25 4.83248 22.981 2.81348 20.5 2.81348ZM5.5 3.81348H20.5C21.584 3.81348 22.543 4.31948 23.186 5.09648L15.495 12.7885C14.833 13.4495 13.938 13.8135 12.998 13.8135C12.084 13.7965 11.172 13.4535 10.506 12.7885L2.814 5.09648C3.457 4.31948 4.415 3.81348 5.5 3.81348ZM24 18.3135C24 20.2435 22.43 21.8135 20.5 21.8135H5.5C3.57 21.8135 2 20.2435 2 18.3135V7.31348C2 6.83648 2.097 6.38248 2.271 5.96748L9.799 13.4955C10.65 14.3465 11.779 14.8135 12.976 14.8135C14.173 14.8135 15.351 14.3465 16.202 13.4955L23.73 5.96748C23.904 6.38248 24.001 6.83648 24.001 7.31348L24 18.3135Z" fill="#FEFEFE" stroke="white" stroke-width="1.2"/>
</svg>
