<svg width="40" height="36" viewBox="0 0 40 36" fill="none" xmlns="http://www.w3.org/2000/svg">
<path d="M16.7957 8.7261L13.0844 12.4375L16.799 16.1258L14.4718 18.453L10.7572 14.7383C9.48165 13.4628 9.48165 11.3874 10.7572 10.1102L14.4685 6.39889L16.7957 8.7261ZM25.0282 18.453L28.7428 14.7383C30.0184 13.4628 30.0184 11.3874 28.7428 10.1102L25.0315 6.39889L22.7043 8.7261L26.4156 12.4111L22.701 16.1258L25.0282 18.453ZM38.0533 22.1265L25.0874 35.094H18.1042V28.1124L31.0717 15.1448C32.9364 13.2785 36.1886 13.2785 38.055 15.1448C39.9789 17.0705 39.9773 20.2008 38.0533 22.1265ZM35.7261 17.4721C35.104 16.8483 34.0194 16.8483 33.3989 17.4721L21.3958 29.4751V31.8023H23.7247L35.7261 19.7993C36.368 19.1574 36.368 18.1139 35.7261 17.4721ZM16.3168 21.9273L14.671 20.2815H6.58333V3.82316H32.9167V5.76689H32.8953L32.9019 10.6221C33.445 10.5135 33.9996 10.4542 34.5625 10.4542C35.1139 10.4542 35.6603 10.5085 36.1935 10.6139L36.1886 7.24156H36.2083V0.531494H3.29167V20.2815H0V25.219C0 27.9412 2.21529 30.1565 4.9375 30.1565H14.8125V26.8648H4.9375C4.03065 26.8648 3.29167 26.1275 3.29167 25.219V23.5732H13.3082L14.954 25.219H16.3431L19.6348 21.9273H16.3168Z" fill="white"/>
</svg>
