<svg width="56" height="57" viewBox="0 0 56 57" fill="none" xmlns="http://www.w3.org/2000/svg">
<rect y="0.847656" width="55.9309" height="55.9309" rx="27.9655" fill="#F2F4F7"/>
<path d="M33.002 18.5566C36.0588 18.5566 38.5371 21.035 38.5371 24.0918V33.4131C38.5369 36.4697 36.0586 38.9482 33.002 38.9482H23.6807C20.6242 38.948 18.1458 36.4695 18.1455 33.4131V24.0918C18.1455 21.0351 20.624 18.5569 23.6807 18.5566H33.002ZM23.6807 20.3047C21.5893 20.3049 19.8936 22.0004 19.8936 24.0918V33.4131C19.8938 35.5042 21.5895 37.2 23.6807 37.2002H33.002C35.0933 37.2002 36.7888 35.5044 36.7891 33.4131V24.0918C36.7891 22.0003 35.0934 20.3047 33.002 20.3047H23.6807ZM28.3428 24.3818C30.7556 24.3823 32.7118 26.339 32.7119 28.752C32.7117 31.1648 30.7555 33.1206 28.3428 33.1211C25.9296 33.1211 23.9729 31.165 23.9727 28.752C23.9727 26.3388 25.9296 24.3818 28.3428 24.3818ZM28.3428 26.1299C26.8949 26.1299 25.7208 27.3041 25.7207 28.752C25.7209 30.1997 26.895 31.373 28.3428 31.373C29.7902 31.3726 30.9636 30.1994 30.9639 28.752C30.9638 27.3043 29.7903 26.1303 28.3428 26.1299ZM33.585 22.6348C34.0676 22.6348 34.459 23.0261 34.459 23.5088V23.5098C34.4588 23.9922 34.0675 24.3838 33.585 24.3838C33.1026 24.3836 32.7111 23.9922 32.7109 23.5098V23.5088C32.7109 23.0262 33.1024 22.6349 33.585 22.6348Z" fill="#282828"/>
</svg>
