<svg width="57" height="57" viewBox="0 0 57 57" fill="none" xmlns="http://www.w3.org/2000/svg">
<rect x="0.930664" y="0.847656" width="55.9309" height="55.9309" rx="27.9655" fill="#F2F4F7"/>
<path d="M35.8872 18.6172C37.6567 18.6173 39.0911 20.0518 39.0913 21.8213V35.8047C39.0911 37.5742 37.6567 39.0086 35.8872 39.0088H21.9038C20.1345 39.0084 18.6999 37.574 18.6997 35.8047V21.8213C18.6999 20.052 20.1346 18.6176 21.9038 18.6172H35.8872ZM21.9038 20.3652C21.0999 20.3656 20.448 21.0173 20.4478 21.8213V35.8047C20.4479 36.6087 21.0998 37.2603 21.9038 37.2607H35.8872C36.6914 37.2606 37.3431 36.6089 37.3433 35.8047V21.8213C37.3431 21.0171 36.6914 20.3654 35.8872 20.3652H21.9038ZM24.2339 26.7734C24.7165 26.7734 25.1078 27.1649 25.1079 27.6475V33.4736C25.1079 33.9563 24.7165 34.3477 24.2339 34.3477C23.7515 34.3474 23.3599 33.9561 23.3599 33.4736V27.6475C23.36 27.165 23.7515 26.7737 24.2339 26.7734ZM31.2261 26.7734C32.0758 26.7735 32.8918 27.1111 33.4927 27.7119C34.0933 28.3127 34.431 29.128 34.4312 29.9775V33.4736C34.4311 33.9561 34.0395 34.3473 33.5571 34.3477C33.0745 34.3477 32.6831 33.9563 32.6831 33.4736V29.9775C32.683 29.5915 32.5292 29.2212 32.2563 28.9482C31.9833 28.6752 31.6122 28.5216 31.2261 28.5215C30.84 28.5216 30.4698 28.6753 30.1968 28.9482C29.9238 29.2213 29.7702 29.5914 29.77 29.9775V33.4736C29.77 33.9561 29.3785 34.3475 28.896 34.3477C28.4134 34.3477 28.022 33.9563 28.022 33.4736V27.6475C28.0221 27.1649 28.4134 26.7734 28.896 26.7734C29.2119 26.7736 29.4877 26.9421 29.6411 27.1934C30.1199 26.9209 30.6656 26.7735 31.2261 26.7734ZM24.2339 23.2783C24.7165 23.2783 25.1079 23.6697 25.1079 24.1523V24.1621C25.1077 24.6446 24.7164 25.0361 24.2339 25.0361C23.7516 25.0359 23.3601 24.6444 23.3599 24.1621V24.1523C23.3599 23.6698 23.7514 23.2786 24.2339 23.2783Z" fill="#282828"/>
</svg>
