<svg width="57" height="57" viewBox="0 0 57 57" fill="none" xmlns="http://www.w3.org/2000/svg">
<rect x="0.861816" y="0.847656" width="55.9309" height="55.9309" rx="27.9655" fill="#F2F4F7"/>
<path d="M37.3003 19.6611C39.0698 19.6613 40.5042 21.0958 40.5044 22.8652V34.5176C40.5042 36.287 39.0698 37.7225 37.3003 37.7227H20.9868C19.2174 37.7225 17.7829 36.287 17.7827 34.5176V22.8311C17.801 21.0772 19.2287 19.6613 20.9868 19.6611H37.3003ZM29.6284 30.584C29.335 30.7795 28.9521 30.7794 28.6587 30.584L19.5308 24.498V34.5176C19.531 35.3217 20.1827 35.9744 20.9868 35.9746H37.3003C38.1045 35.9745 38.7571 35.3217 38.7573 34.5176V24.498L29.6284 30.584ZM20.9868 21.4092C20.3306 21.4093 19.7753 21.8428 19.5933 22.4395L29.1431 28.8057L38.6929 22.4385C38.5103 21.8425 37.9561 21.4093 37.3003 21.4092H20.9868Z" fill="#282828"/>
</svg>
