<svg width="24" height="26" viewBox="0 0 24 26" fill="none" xmlns="http://www.w3.org/2000/svg">
<path d="M12 24.8135C10.783 24.8135 9.487 24.1695 8.617 23.1345C4.35 18.0585 2 13.6825 2 10.8135C2 5.29948 6.486 0.813477 12 0.813477C17.514 0.813477 22 5.29948 22 10.8135C22 13.6825 19.65 18.0585 15.383 23.1345C14.514 24.1695 13.217 24.8135 12 24.8135ZM12 1.81348C7.038 1.81348 3 5.85148 3 10.8135C3 13.4085 5.327 17.6655 9.383 22.4915C10.057 23.2945 11.085 23.8125 12 23.8125C12.915 23.8125 13.942 23.2935 14.617 22.4915C18.674 17.6655 21 13.4085 21 10.8135C21 5.85048 16.963 1.81348 12 1.81348Z" fill="#FEFEFE" stroke="white" stroke-width="1.2"/>
<path d="M12 14.8135C9.794 14.8135 8 13.0195 8 10.8135C8 8.60748 9.794 6.81348 12 6.81348C14.206 6.81348 16 8.60748 16 10.8135C16 13.0195 14.206 14.8135 12 14.8135ZM12 7.81348C10.346 7.81348 9 9.15948 9 10.8135C9 12.4675 10.346 13.8135 12 13.8135C13.654 13.8135 15 12.4675 15 10.8135C15 9.15948 13.654 7.81348 12 7.81348Z" fill="#FEFEFE" stroke="white" stroke-width="1.2"/>
</svg>
