<svg width="1795" height="1165" viewBox="0 0 1795 1165" fill="none" xmlns="http://www.w3.org/2000/svg">
<g filter="url(#filter0_fn_298_784)">
<g filter="url(#filter1_df_298_784)">
<path d="M696.636 328.379C756.489 332.725 803.441 378.462 848.499 418.1C891.733 456.133 932.448 498.104 951.388 552.483C970.427 607.149 970.191 666.862 954.549 722.595C939.18 777.358 908.657 827.795 864.174 863.241C821.565 897.193 781.251 888.953 734.711 957.94C680.774 917.98 652.096 890.955 534.759 937.844C607.439 803.874 460.161 890.537 431.045 846.298C484.633 781.545 298.321 748.189 291.309 697.187C283.846 642.907 417.648 564.96 357.361 509.139C384.14 460.542 487.289 424.048 534.759 395.319C585.745 364.461 637.194 324.063 696.636 328.379Z" fill="url(#paint0_radial_298_784)"/>
<path d="M696.636 328.379C756.489 332.725 803.441 378.462 848.499 418.1C891.733 456.133 932.448 498.104 951.388 552.483C970.427 607.149 970.191 666.862 954.549 722.595C939.18 777.358 908.657 827.795 864.174 863.241C821.565 897.193 781.251 888.953 734.711 957.94C680.774 917.98 652.096 890.955 534.759 937.844C607.439 803.874 460.161 890.537 431.045 846.298C484.633 781.545 298.321 748.189 291.309 697.187C283.846 642.907 417.648 564.96 357.361 509.139C384.14 460.542 487.289 424.048 534.759 395.319C585.745 364.461 637.194 324.063 696.636 328.379Z" fill="url(#paint1_radial_298_784)"/>
<path d="M605.56 334.813C633.467 320.771 664.112 310.476 697.758 312.919L699.333 313.042C732.33 315.803 761.153 329.693 786.843 347.196C812.711 364.821 836.685 387.063 858.736 406.461L862.816 410.069C904.954 447.528 946.315 490.791 966.025 547.385L966.495 548.746C985.914 605.478 985.745 666.876 970.229 724.042L969.473 726.783C953.482 783.76 921.717 836.772 874.941 874.475L873.833 875.364C850.926 893.617 826.521 901.808 807.95 911.265C788.809 921.013 769.203 934.527 747.561 966.608L738.501 980.038L725.484 970.394C697.487 949.652 679.863 935.55 655.381 930.504C631.261 925.533 598.21 929.18 540.511 952.238L500.681 968.154L521.135 930.453C529.935 914.232 534.977 902.11 537.409 893.186C539.893 884.071 539.217 879.878 538.7 878.419C538.473 877.777 538.185 877.015 535.794 876.057C532.816 874.864 528.003 874.059 520.774 873.918C513.699 873.781 505.732 874.277 496.812 874.849C488.171 875.403 478.655 876.027 469.579 875.924C452.922 875.736 430.217 873.233 418.098 854.819L411.797 845.246L419.104 836.416C424.182 830.279 425.206 826.037 425.214 823.348C425.222 820.585 424.161 817.03 420.527 812.315C412.685 802.137 396.962 791.657 376.333 780.112C357.073 769.333 333.346 757.551 315.262 745.939C306.016 740.002 297.208 733.494 290.322 726.293C283.713 719.382 277.829 710.742 276.107 700.313L275.953 699.298C273.234 679.521 283.396 660.14 294.066 644.151C304.86 627.976 320.181 609.83 331.752 594.43C344.215 577.843 353.253 563.379 356.376 550.724C357.855 544.731 357.856 539.678 356.602 535.205C355.361 530.782 352.594 525.85 346.83 520.512L337.935 512.276L343.785 501.659C351.99 486.768 365.407 473.813 380.361 462.523C395.46 451.124 413.142 440.673 430.98 431.116C448.825 421.555 467.326 412.627 483.955 404.472C500.821 396.202 515.549 388.827 526.733 382.058L529.019 380.668C552.721 366.189 579.07 348.142 605.56 334.813Z" stroke="#FF5100" stroke-width="31"/>
</g>
<g filter="url(#filter2_df_298_784)">
<path d="M1317.36 273.309C1367.28 276.934 1406.44 315.083 1444.02 348.145C1480.09 379.868 1514.05 414.876 1529.84 460.233C1545.72 505.829 1545.53 555.636 1532.48 602.122C1519.66 647.8 1539.21 760.956 1502.11 790.521C1466.57 818.84 1376.23 796.224 1331.4 803.652C1287.34 810.953 1240.27 780.379 1199.51 762.116C1159.2 744.053 1137.32 702.171 1113.03 665.272C1089.42 629.403 1066.15 593.141 1060.3 550.6C1054.08 505.326 1056.92 457.605 1078.98 417.579C1101.31 377.045 1142.74 353.106 1182.34 329.143C1224.86 303.405 1267.78 269.709 1317.36 273.309Z" fill="url(#paint2_radial_298_784)"/>
<path d="M1317.36 273.309C1367.28 276.934 1406.44 315.083 1444.02 348.145C1480.09 379.868 1514.05 414.876 1529.84 460.233C1545.72 505.829 1545.53 555.636 1532.48 602.122C1519.66 647.8 1539.21 760.956 1502.11 790.521C1466.57 818.84 1376.23 796.224 1331.4 803.652C1287.34 810.953 1240.27 780.379 1199.51 762.116C1159.2 744.053 1137.32 702.171 1113.03 665.272C1089.42 629.403 1066.15 593.141 1060.3 550.6C1054.08 505.326 1056.92 457.605 1078.98 417.579C1101.31 377.045 1142.74 353.106 1182.34 329.143C1224.86 303.405 1267.78 269.709 1317.36 273.309Z" fill="url(#paint3_radial_298_784)"/>
<path d="M1240.24 276.378C1263.72 264.562 1289.76 255.765 1318.48 257.85L1319.82 257.954C1347.95 260.308 1372.42 272.141 1394.05 286.879C1415.79 301.695 1435.95 320.397 1454.26 336.507L1457.67 339.521C1492.89 370.827 1527.81 407.281 1544.48 455.135L1545.27 457.433C1561.26 504.974 1561 556.271 1548.04 604.003L1547.4 606.311C1544.77 615.714 1543.59 629.629 1543.04 647.159C1542.77 655.742 1542.65 664.798 1542.52 674.23C1542.39 683.603 1542.23 693.308 1541.89 702.92C1541.2 721.994 1539.74 741.552 1535.8 758.531C1532.02 774.873 1525.38 791.435 1512.39 802.138L1511.77 802.643C1499.74 812.227 1484.24 816.683 1468.89 818.826C1453.35 820.996 1436.25 821.013 1419.68 820.41C1411.34 820.107 1402.96 819.638 1394.86 819.174C1386.7 818.707 1378.86 818.246 1371.35 817.936C1356.57 817.325 1344.23 817.366 1334.84 818.8L1333.94 818.944C1307.69 823.293 1281.68 816.219 1258.43 806.847C1246.68 802.113 1235.16 796.592 1224.29 791.25C1213.93 786.163 1204.32 781.324 1195.03 777.098L1193.17 776.261C1169.82 765.797 1152.41 748.681 1138.05 730.299C1124.87 713.431 1113.16 693.92 1102.25 677.116L1100.08 673.793C1077.11 638.887 1052.14 600.475 1045.26 554.888L1044.95 552.711C1038.48 505.671 1041.12 454.165 1065.4 410.099L1065.98 409.05C1090.85 364.801 1136.07 339.024 1174.31 315.883L1176.2 314.734C1195.8 302.757 1218.03 287.55 1240.24 276.378Z" stroke="#FF5100" stroke-width="31"/>
</g>
<g filter="url(#filter3_df_298_784)">
<path d="M945.356 318.309C995.28 321.934 1034.44 360.083 1072.02 393.145C1108.09 424.868 1142.05 459.876 1157.84 505.233C1173.72 550.829 1173.53 600.636 1160.48 647.122C1147.66 692.8 1167.21 805.956 1130.11 835.521C1094.57 863.84 1004.23 841.224 959.402 848.652C915.341 855.953 868.27 825.379 827.513 807.116C787.201 789.053 765.316 747.171 741.031 710.272C717.423 674.403 694.153 638.141 688.304 595.6C682.08 550.326 684.92 502.605 706.976 462.579C729.312 422.045 770.742 398.106 810.336 374.143C852.864 348.405 895.777 314.709 945.356 318.309Z" fill="url(#paint4_radial_298_784)"/>
<path d="M945.356 318.309C995.28 321.934 1034.44 360.083 1072.02 393.145C1108.09 424.868 1142.05 459.876 1157.84 505.233C1173.72 550.829 1173.53 600.636 1160.48 647.122C1147.66 692.8 1167.21 805.956 1130.11 835.521C1094.57 863.84 1004.23 841.224 959.402 848.652C915.341 855.953 868.27 825.379 827.513 807.116C787.201 789.053 765.316 747.171 741.031 710.272C717.423 674.403 694.153 638.141 688.304 595.6C682.08 550.326 684.92 502.605 706.976 462.579C729.312 422.045 770.742 398.106 810.336 374.143C852.864 348.405 895.777 314.709 945.356 318.309Z" fill="url(#paint5_radial_298_784)"/>
<path d="M868.235 321.378C891.719 309.562 917.764 300.765 946.479 302.85L947.821 302.954C975.948 305.308 1000.42 317.141 1022.05 331.879C1043.79 346.695 1063.95 365.397 1082.26 381.507L1085.67 384.521C1120.89 415.827 1155.81 452.281 1172.48 500.135L1173.27 502.433C1189.26 549.974 1189 601.271 1176.04 649.003L1175.4 651.311C1172.77 660.714 1171.59 674.629 1171.04 692.159C1170.77 700.742 1170.65 709.798 1170.52 719.23C1170.39 728.603 1170.23 738.308 1169.89 747.92C1169.2 766.994 1167.74 786.552 1163.8 803.531C1160.02 819.873 1153.38 836.435 1140.39 847.138L1139.77 847.643C1127.74 857.227 1112.24 861.683 1096.89 863.826C1081.35 865.996 1064.25 866.013 1047.68 865.41C1039.34 865.107 1030.96 864.638 1022.86 864.174C1014.7 863.707 1006.86 863.246 999.351 862.936C984.575 862.325 972.231 862.366 962.836 863.8L961.936 863.944C935.688 868.293 909.684 861.219 886.426 851.847C874.677 847.113 863.163 841.592 852.286 836.25C841.928 831.163 832.315 826.324 823.028 822.098L821.175 821.261C797.821 810.797 780.406 793.681 766.047 775.299C752.87 758.431 741.164 738.92 730.255 722.116L728.083 718.793C705.11 683.887 680.141 645.475 673.263 599.888L672.949 597.711C666.482 550.671 669.118 499.165 693.4 455.099L693.984 454.05C718.851 409.801 764.075 384.024 802.311 360.883L804.199 359.734C823.803 347.757 846.032 332.55 868.235 321.378Z" stroke="#FF5100" stroke-width="31"/>
</g>
<g filter="url(#filter4_df_298_784)">
<path d="M905.07 478.259C942.712 524.997 941.282 590.528 943.023 650.514C944.693 708.072 941.765 766.474 914.911 817.411C887.916 868.617 844.083 909.169 792.655 935.74C742.123 961.848 684.418 973.923 628.157 965.564C574.267 957.557 552.8 922.453 470.606 935.465C463.045 868.765 463.252 829.36 348.935 775.524C496.483 737.312 332.658 688.703 345.156 637.238C429.06 632.269 326.391 473.26 358.909 433.348C393.517 390.871 541.777 435.568 541.486 353.407C595.29 339.849 692.328 390.398 745.713 405.522C803.054 421.767 867.688 431.843 905.07 478.259Z" fill="url(#paint6_radial_298_784)"/>
<path d="M905.07 478.259C942.712 524.997 941.282 590.528 943.023 650.514C944.693 708.072 941.765 766.474 914.911 817.411C887.916 868.617 844.083 909.169 792.655 935.74C742.123 961.848 684.418 973.923 628.157 965.564C574.267 957.557 552.8 922.453 470.606 935.465C463.045 868.765 463.252 829.36 348.935 775.524C496.483 737.312 332.658 688.703 345.156 637.238C429.06 632.269 326.391 473.26 358.909 433.348C393.517 390.871 541.777 435.568 541.486 353.407C595.29 339.849 692.328 390.398 745.713 405.522C803.054 421.767 867.688 431.843 905.07 478.259Z" fill="url(#paint7_radial_298_784)"/>
<path d="M838.251 416.038C867.553 426.872 895.982 442.263 917.142 468.536L918.126 469.772C938.611 495.788 948.11 526.34 952.829 557.065C957.582 588.005 957.665 620.707 958.516 650.064L958.661 655.508C960.002 711.873 956.57 771.627 928.622 824.64L927.948 825.911C899.7 878.805 854.681 920.554 802.291 948.195L799.77 949.51C747.194 976.673 686.76 989.596 627.285 981.1L625.879 980.896C596.907 976.591 574.272 964.329 554.69 957.197C534.507 949.845 511.252 944.723 473.03 950.774L457.029 953.307L455.205 937.211C451.28 902.589 449.574 880.082 436.568 858.736C423.754 837.705 398.546 816.021 342.332 789.547L303.527 771.272L345.05 760.519C362.915 755.892 375.219 751.313 383.404 747.006C391.764 742.606 394.37 739.252 395.084 737.879C395.399 737.275 395.76 736.544 394.83 734.142C393.672 731.151 390.978 727.082 386.151 721.699C381.426 716.431 375.63 710.942 369.127 704.809C362.829 698.867 355.883 692.333 349.768 685.625C338.546 673.314 324.892 655.002 330.094 633.58L332.798 622.443L344.239 621.765C352.19 621.294 355.992 619.15 357.963 617.322C359.989 615.443 361.866 612.243 362.836 606.37C364.931 593.693 361.873 575.046 356.248 552.085C350.995 530.649 343.431 505.261 339.59 484.115C337.626 473.305 336.379 462.424 336.949 452.477C337.496 442.929 339.802 432.734 346.255 424.362L346.892 423.558C359.502 408.081 380.607 402.295 399.577 399.194C418.768 396.057 442.488 394.887 461.642 392.846C482.273 390.649 499.016 387.395 510.4 381.048C515.792 378.042 519.488 374.597 521.905 370.628C524.293 366.705 526.014 361.318 525.986 353.462L525.943 341.339L537.698 338.377C554.184 334.223 572.809 335.2 591.265 338.437C609.899 341.705 629.601 347.509 648.757 354.037C667.919 360.567 687.066 368.009 704.371 374.61C721.922 381.304 737.361 387.046 749.938 390.609L752.513 391.333C779.268 398.793 810.437 405.755 838.251 416.038Z" stroke="#FF5100" stroke-width="31"/>
</g>
</g>
<defs>
<filter id="filter0_fn_298_784" x="-93.6" y="-93.6" width="1982.2" height="1352.2" filterUnits="userSpaceOnUse" color-interpolation-filters="sRGB">
<feFlood flood-opacity="0" result="BackgroundImageFix"/>
<feBlend mode="normal" in="SourceGraphic" in2="BackgroundImageFix" result="shape"/>
<feGaussianBlur stdDeviation="46.8" result="effect1_foregroundBlur_298_784"/>
<feTurbulence type="fractalNoise" baseFrequency="1.4285714626312256 1.4285714626312256" stitchTiles="stitch" numOctaves="3" result="noise" seed="9238" />
<feColorMatrix in="noise" type="luminanceToAlpha" result="alphaNoise" />
<feComponentTransfer in="alphaNoise" result="coloredNoise1">
<feFuncA type="discrete" tableValues="1 1 1 1 1 1 1 1 1 1 1 1 1 1 1 1 1 1 1 1 1 1 1 1 1 1 1 1 1 1 1 1 1 1 1 1 1 1 1 1 1 1 1 1 1 1 1 1 1 1 1 0 0 0 0 0 0 0 0 0 0 0 0 0 0 0 0 0 0 0 0 0 0 0 0 0 0 0 0 0 0 0 0 0 0 0 0 0 0 0 0 0 0 0 0 0 0 0 0 0 "/>
</feComponentTransfer>
<feComposite operator="in" in2="effect1_foregroundBlur_298_784" in="coloredNoise1" result="noise1Clipped" />
<feFlood flood-color="rgba(0, 0, 0, 0.15)" result="color1Flood" />
<feComposite operator="in" in2="noise1Clipped" in="color1Flood" result="color1" />
<feMerge result="effect2_noise_298_784">
<feMergeNode in="effect1_foregroundBlur_298_784" />
<feMergeNode in="color1" />
</feMerge>
</filter>
<filter id="filter1_df_298_784" x="198.097" y="235.15" width="860.809" height="828.896" filterUnits="userSpaceOnUse" color-interpolation-filters="sRGB">
<feFlood flood-opacity="0" result="BackgroundImageFix"/>
<feColorMatrix in="SourceAlpha" type="matrix" values="0 0 0 0 0 0 0 0 0 0 0 0 0 0 0 0 0 0 127 0" result="hardAlpha"/>
<feMorphology radius="16.1289" operator="dilate" in="SourceAlpha" result="effect1_dropShadow_298_784"/>
<feOffset/>
<feGaussianBlur stdDeviation="22.8906"/>
<feComposite in2="hardAlpha" operator="out"/>
<feColorMatrix type="matrix" values="0 0 0 0 1 0 0 0 0 0.427451 0 0 0 0 0.00784314 0 0 0 1 0"/>
<feBlend mode="normal" in2="BackgroundImageFix" result="effect1_dropShadow_298_784"/>
<feBlend mode="normal" in="SourceGraphic" in2="effect1_dropShadow_298_784" result="shape"/>
<feGaussianBlur stdDeviation="15.45" result="effect2_foregroundBlur_298_784"/>
</filter>
<filter id="filter2_df_298_784" x="964.516" y="180.133" width="670.423" height="718.027" filterUnits="userSpaceOnUse" color-interpolation-filters="sRGB">
<feFlood flood-opacity="0" result="BackgroundImageFix"/>
<feColorMatrix in="SourceAlpha" type="matrix" values="0 0 0 0 0 0 0 0 0 0 0 0 0 0 0 0 0 0 127 0" result="hardAlpha"/>
<feMorphology radius="16.1289" operator="dilate" in="SourceAlpha" result="effect1_dropShadow_298_784"/>
<feOffset/>
<feGaussianBlur stdDeviation="22.8906"/>
<feComposite in2="hardAlpha" operator="out"/>
<feColorMatrix type="matrix" values="0 0 0 0 1 0 0 0 0 0.427451 0 0 0 0 0.00784314 0 0 0 1 0"/>
<feBlend mode="normal" in2="BackgroundImageFix" result="effect1_dropShadow_298_784"/>
<feBlend mode="normal" in="SourceGraphic" in2="effect1_dropShadow_298_784" result="shape"/>
<feGaussianBlur stdDeviation="15.45" result="effect2_foregroundBlur_298_784"/>
</filter>
<filter id="filter3_df_298_784" x="592.516" y="225.133" width="670.423" height="718.027" filterUnits="userSpaceOnUse" color-interpolation-filters="sRGB">
<feFlood flood-opacity="0" result="BackgroundImageFix"/>
<feColorMatrix in="SourceAlpha" type="matrix" values="0 0 0 0 0 0 0 0 0 0 0 0 0 0 0 0 0 0 127 0" result="hardAlpha"/>
<feMorphology radius="16.1289" operator="dilate" in="SourceAlpha" result="effect1_dropShadow_298_784"/>
<feOffset/>
<feGaussianBlur stdDeviation="22.8906"/>
<feComposite in2="hardAlpha" operator="out"/>
<feColorMatrix type="matrix" values="0 0 0 0 1 0 0 0 0 0.427451 0 0 0 0 0.00784314 0 0 0 1 0"/>
<feBlend mode="normal" in2="BackgroundImageFix" result="effect1_dropShadow_298_784"/>
<feBlend mode="normal" in="SourceGraphic" in2="effect1_dropShadow_298_784" result="shape"/>
<feGaussianBlur stdDeviation="15.45" result="effect2_foregroundBlur_298_784"/>
</filter>
<filter id="filter4_df_298_784" x="196.21" y="258.212" width="840.107" height="802.886" filterUnits="userSpaceOnUse" color-interpolation-filters="sRGB">
<feFlood flood-opacity="0" result="BackgroundImageFix"/>
<feColorMatrix in="SourceAlpha" type="matrix" values="0 0 0 0 0 0 0 0 0 0 0 0 0 0 0 0 0 0 127 0" result="hardAlpha"/>
<feMorphology radius="16.1289" operator="dilate" in="SourceAlpha" result="effect1_dropShadow_298_784"/>
<feOffset/>
<feGaussianBlur stdDeviation="22.8906"/>
<feComposite in2="hardAlpha" operator="out"/>
<feColorMatrix type="matrix" values="0 0 0 0 1 0 0 0 0 0.427451 0 0 0 0 0.00784314 0 0 0 1 0"/>
<feBlend mode="normal" in2="BackgroundImageFix" result="effect1_dropShadow_298_784"/>
<feBlend mode="normal" in="SourceGraphic" in2="effect1_dropShadow_298_784" result="shape"/>
<feGaussianBlur stdDeviation="15.45" result="effect2_foregroundBlur_298_784"/>
</filter>
<radialGradient id="paint0_radial_298_784" cx="0" cy="0" r="1" gradientUnits="userSpaceOnUse" gradientTransform="translate(628.502 643) rotate(93.3495) scale(516.518 553.266)">
<stop stop-color="#FFC400"/>
<stop offset="1" stop-color="#E70000"/>
</radialGradient>
<radialGradient id="paint1_radial_298_784" cx="0" cy="0" r="1" gradientUnits="userSpaceOnUse" gradientTransform="translate(628.502 643) rotate(93.3495) scale(516.518 553.266)">
<stop stop-color="#FFC533"/>
<stop offset="1" stop-color="#FF6A01"/>
</radialGradient>
<radialGradient id="paint2_radial_298_784" cx="0" cy="0" r="1" gradientUnits="userSpaceOnUse" gradientTransform="translate(1299.73 539.146) rotate(92.847) scale(436.216 397.403)">
<stop stop-color="#FFC400"/>
<stop offset="1" stop-color="#E70000"/>
</radialGradient>
<radialGradient id="paint3_radial_298_784" cx="0" cy="0" r="1" gradientUnits="userSpaceOnUse" gradientTransform="translate(1299.73 539.146) rotate(92.847) scale(436.216 397.403)">
<stop stop-color="#FFC533"/>
<stop offset="1" stop-color="#FF6A01"/>
</radialGradient>
<radialGradient id="paint4_radial_298_784" cx="0" cy="0" r="1" gradientUnits="userSpaceOnUse" gradientTransform="translate(927.726 584.146) rotate(92.847) scale(436.216 397.403)">
<stop stop-color="#FFC400"/>
<stop offset="1" stop-color="#E70000"/>
</radialGradient>
<radialGradient id="paint5_radial_298_784" cx="0" cy="0" r="1" gradientUnits="userSpaceOnUse" gradientTransform="translate(927.726 584.146) rotate(92.847) scale(436.216 397.403)">
<stop stop-color="#FFC533"/>
<stop offset="1" stop-color="#FF6A01"/>
</radialGradient>
<radialGradient id="paint6_radial_298_784" cx="0" cy="0" r="1" gradientUnits="userSpaceOnUse" gradientTransform="translate(628.504 643) rotate(140.35) scale(516.518 553.266)">
<stop stop-color="#FFC400"/>
<stop offset="1" stop-color="#E70000"/>
</radialGradient>
<radialGradient id="paint7_radial_298_784" cx="0" cy="0" r="1" gradientUnits="userSpaceOnUse" gradientTransform="translate(628.504 643) rotate(140.35) scale(516.518 553.266)">
<stop stop-color="#FFC533"/>
<stop offset="1" stop-color="#FF6A01"/>
</radialGradient>
</defs>
</svg>
