<svg width="1467" height="926" viewBox="0 0 1467 926" fill="none" xmlns="http://www.w3.org/2000/svg">
<g filter="url(#filter0_df_309_43)">
<path d="M1149.36 93.9259C1199.28 97.5508 1238.44 135.7 1276.02 168.761C1312.09 200.484 1346.05 235.493 1361.84 280.85C1377.72 326.446 1377.53 376.252 1364.48 422.739C1351.66 468.416 1371.21 581.572 1334.11 611.138C1298.57 639.457 1208.23 616.84 1163.4 624.269C1119.34 631.57 1072.27 600.995 1031.51 582.733C991.201 564.669 969.316 522.788 945.031 485.889C921.423 450.019 898.153 413.757 892.304 371.217C886.08 325.942 888.92 278.222 910.976 238.196C933.312 197.662 974.742 173.723 1014.34 149.76C1056.86 124.022 1099.78 90.3259 1149.36 93.9259Z" fill="url(#paint0_radial_309_43)"/>
<path d="M1149.36 93.9259C1199.28 97.5508 1238.44 135.7 1276.02 168.761C1312.09 200.484 1346.05 235.493 1361.84 280.85C1377.72 326.446 1377.53 376.252 1364.48 422.739C1351.66 468.416 1371.21 581.572 1334.11 611.138C1298.57 639.457 1208.23 616.84 1163.4 624.269C1119.34 631.57 1072.27 600.995 1031.51 582.733C991.201 564.669 969.316 522.788 945.031 485.889C921.423 450.019 898.153 413.757 892.304 371.217C886.08 325.942 888.92 278.222 910.976 238.196C933.312 197.662 974.742 173.723 1014.34 149.76C1056.86 124.022 1099.78 90.3259 1149.36 93.9259Z" fill="url(#paint1_radial_309_43)"/>
<path d="M1072.24 96.9949C1095.72 85.1789 1121.76 76.3816 1150.48 78.4666L1151.82 78.571C1179.95 80.9244 1204.42 92.7582 1226.05 107.496C1247.79 122.312 1267.95 141.013 1286.26 157.124L1289.67 160.137C1324.89 191.443 1359.81 227.898 1376.48 275.752L1377.27 278.05C1393.26 325.591 1393 376.888 1380.04 424.62L1379.4 426.927C1376.77 436.331 1375.59 450.246 1375.04 467.776C1374.77 476.358 1374.65 485.415 1374.52 494.846C1374.39 504.219 1374.23 513.924 1373.89 523.537C1373.2 542.61 1371.74 562.168 1367.8 579.148C1364.02 595.49 1357.38 612.052 1344.39 622.755L1343.77 623.26C1331.74 632.844 1316.24 637.3 1300.89 639.443C1285.35 641.612 1268.25 641.629 1251.68 641.027C1243.34 640.724 1234.96 640.255 1226.86 639.791C1218.7 639.323 1210.86 638.863 1203.35 638.552C1188.57 637.942 1176.23 637.982 1166.84 639.417L1165.94 639.56C1139.69 643.91 1113.68 636.835 1090.43 627.464C1078.68 622.73 1067.16 617.209 1056.29 611.867C1045.93 606.78 1036.32 601.941 1027.03 597.715L1025.17 596.878C1001.82 586.413 984.406 569.298 970.047 550.916C956.87 534.048 945.164 514.536 934.255 497.733L932.083 494.41C909.11 459.504 884.141 421.091 877.263 375.505L876.949 373.328C870.482 326.287 873.118 274.782 897.4 230.716L897.984 229.667C922.851 185.417 968.075 159.641 1006.31 136.5L1008.2 135.35C1027.8 123.374 1050.03 108.167 1072.24 96.9949Z" stroke="#FF5100" stroke-width="31"/>
</g>
<g filter="url(#filter1_df_309_43)">
<path d="M777.356 138.926C827.28 142.551 866.442 180.7 904.025 213.761C940.086 245.484 974.046 280.493 989.844 325.85C1005.72 371.446 1005.53 421.252 992.481 467.739C979.661 513.416 999.209 626.572 962.106 656.138C926.567 684.457 836.233 661.84 791.402 669.269C747.341 676.57 700.27 645.995 659.513 627.733C619.201 609.669 597.316 567.788 573.031 530.889C549.423 495.019 526.153 458.757 520.304 416.217C514.08 370.942 516.92 323.222 538.976 283.196C561.312 242.662 602.742 218.723 642.336 194.76C684.864 169.022 727.777 135.326 777.356 138.926Z" fill="url(#paint2_radial_309_43)"/>
<path d="M777.356 138.926C827.28 142.551 866.442 180.7 904.025 213.761C940.086 245.484 974.046 280.493 989.844 325.85C1005.72 371.446 1005.53 421.252 992.481 467.739C979.661 513.416 999.209 626.572 962.106 656.138C926.567 684.457 836.233 661.84 791.402 669.269C747.341 676.57 700.27 645.995 659.513 627.733C619.201 609.669 597.316 567.788 573.031 530.889C549.423 495.019 526.153 458.757 520.304 416.217C514.08 370.942 516.92 323.222 538.976 283.196C561.312 242.662 602.742 218.723 642.336 194.76C684.864 169.022 727.777 135.326 777.356 138.926Z" fill="url(#paint3_radial_309_43)"/>
<path d="M700.235 141.995C723.719 130.179 749.764 121.382 778.479 123.467L779.821 123.571C807.948 125.924 832.415 137.758 854.046 152.496C875.792 167.312 895.949 186.013 914.263 202.124L917.671 205.137C952.888 236.443 987.815 272.898 1004.48 320.752L1005.27 323.05C1021.26 370.591 1021 421.888 1008.04 469.62L1007.4 471.927C1004.77 481.331 1003.59 495.246 1003.04 512.776C1002.77 521.358 1002.65 530.415 1002.52 539.846C1002.39 549.219 1002.23 558.924 1001.89 568.537C1001.2 587.61 999.735 607.168 995.803 624.148C992.018 640.49 985.383 657.052 972.389 667.755L971.766 668.26C959.738 677.844 944.236 682.3 928.889 684.443C913.354 686.612 896.245 686.629 879.676 686.027C871.337 685.724 862.959 685.255 854.857 684.791C846.701 684.323 838.862 683.863 831.351 683.552C816.575 682.942 804.231 682.982 794.836 684.417L793.936 684.56C767.688 688.91 741.684 681.835 718.426 672.464C706.677 667.73 695.163 662.209 684.286 656.867C673.928 651.78 664.315 646.941 655.028 642.715L653.175 641.878C629.821 631.413 612.406 614.298 598.047 595.916C584.87 579.048 573.164 559.536 562.255 542.733L560.083 539.41C537.11 504.504 512.141 466.091 505.263 420.505L504.949 418.328C498.482 371.287 501.118 319.782 525.4 275.716L525.984 274.667C550.851 230.417 596.075 204.641 634.311 181.5L636.199 180.35C655.803 168.374 678.032 153.167 700.235 141.995Z" stroke="#FF5100" stroke-width="31"/>
</g>
<g filter="url(#filter2_df_309_43)">
<path d="M737.07 298.876C774.712 345.614 773.282 411.145 775.023 471.131C776.693 528.689 773.765 587.091 746.911 638.028C719.916 689.234 676.083 729.786 624.655 756.356C574.123 782.464 516.418 794.539 460.157 786.18C406.267 778.174 384.8 743.07 302.606 756.082C295.045 689.382 295.252 649.977 180.935 596.14C328.483 557.928 164.658 509.32 177.156 457.855C261.06 452.886 158.391 293.876 190.909 253.965C225.517 211.488 373.777 256.185 373.486 174.024C427.29 160.466 524.328 211.015 577.713 226.139C635.054 242.384 699.688 252.46 737.07 298.876Z" fill="url(#paint4_radial_309_43)"/>
<path d="M737.07 298.876C774.712 345.614 773.282 411.145 775.023 471.131C776.693 528.689 773.765 587.091 746.911 638.028C719.916 689.234 676.083 729.786 624.655 756.356C574.123 782.464 516.418 794.539 460.157 786.18C406.267 778.174 384.8 743.07 302.606 756.082C295.045 689.382 295.252 649.977 180.935 596.14C328.483 557.928 164.658 509.32 177.156 457.855C261.06 452.886 158.391 293.876 190.909 253.965C225.517 211.488 373.777 256.185 373.486 174.024C427.29 160.466 524.328 211.015 577.713 226.139C635.054 242.384 699.688 252.46 737.07 298.876Z" fill="url(#paint5_radial_309_43)"/>
<path d="M670.251 236.655C699.553 247.488 727.982 262.88 749.142 289.153L750.126 290.389C770.611 316.404 780.11 346.957 784.829 377.682C789.582 408.621 789.665 441.324 790.516 470.681L790.661 476.125C792.002 532.49 788.57 592.244 760.622 645.257L759.948 646.528C731.7 699.422 686.681 741.171 634.291 768.811L631.77 770.127C579.194 797.29 518.76 810.213 459.285 801.717L457.879 801.512C428.907 797.208 406.272 784.945 386.69 777.813C366.507 770.462 343.252 765.34 305.03 771.391L289.029 773.924L287.205 757.827C283.28 723.205 281.574 700.699 268.568 679.352C255.754 658.322 230.546 636.637 174.332 610.164L135.527 591.889L177.05 581.136C194.915 576.509 207.219 571.93 215.404 567.622C223.764 563.223 226.37 559.868 227.084 558.496C227.399 557.891 227.76 557.161 226.83 554.759C225.672 551.768 222.978 547.698 218.151 542.316C213.426 537.047 207.63 531.559 201.127 525.425C194.829 519.484 187.883 512.95 181.768 506.242C170.546 493.931 156.892 475.619 162.094 454.197L164.798 443.06L176.239 442.382C184.19 441.911 187.992 439.766 189.963 437.938C191.989 436.06 193.866 432.86 194.836 426.986C196.931 414.309 193.873 395.663 188.248 372.702C182.995 351.266 175.431 325.878 171.59 304.732C169.626 293.921 168.379 283.041 168.949 273.094C169.496 263.546 171.802 253.351 178.255 244.979L178.892 244.174C191.502 228.697 212.607 222.912 231.577 219.811C250.768 216.674 274.488 215.504 293.642 213.463C314.273 211.265 331.016 208.011 342.4 201.664C347.792 198.659 351.488 195.214 353.905 191.245C356.293 187.322 358.014 181.934 357.986 174.079L357.943 161.956L369.698 158.994C386.184 154.839 404.809 155.817 423.265 159.053C441.899 162.321 461.601 168.126 480.757 174.654C499.919 181.184 519.066 188.626 536.371 195.226C553.922 201.921 569.361 207.663 581.938 211.226L584.513 211.95C611.268 219.41 642.437 226.372 670.251 236.655Z" stroke="#FF5100" stroke-width="31"/>
</g>
<defs>
<filter id="filter0_df_309_43" x="796.516" y="0.749443" width="670.423" height="718.027" filterUnits="userSpaceOnUse" color-interpolation-filters="sRGB">
<feFlood flood-opacity="0" result="BackgroundImageFix"/>
<feColorMatrix in="SourceAlpha" type="matrix" values="0 0 0 0 0 0 0 0 0 0 0 0 0 0 0 0 0 0 127 0" result="hardAlpha"/>
<feMorphology radius="16.1289" operator="dilate" in="SourceAlpha" result="effect1_dropShadow_309_43"/>
<feOffset/>
<feGaussianBlur stdDeviation="22.8906"/>
<feComposite in2="hardAlpha" operator="out"/>
<feColorMatrix type="matrix" values="0 0 0 0 1 0 0 0 0 0.427451 0 0 0 0 0.00784314 0 0 0 1 0"/>
<feBlend mode="normal" in2="BackgroundImageFix" result="effect1_dropShadow_309_43"/>
<feBlend mode="normal" in="SourceGraphic" in2="effect1_dropShadow_309_43" result="shape"/>
<feGaussianBlur stdDeviation="20.2231" result="effect2_foregroundBlur_309_43"/>
</filter>
<filter id="filter1_df_309_43" x="424.516" y="45.7494" width="670.423" height="718.027" filterUnits="userSpaceOnUse" color-interpolation-filters="sRGB">
<feFlood flood-opacity="0" result="BackgroundImageFix"/>
<feColorMatrix in="SourceAlpha" type="matrix" values="0 0 0 0 0 0 0 0 0 0 0 0 0 0 0 0 0 0 127 0" result="hardAlpha"/>
<feMorphology radius="16.1289" operator="dilate" in="SourceAlpha" result="effect1_dropShadow_309_43"/>
<feOffset/>
<feGaussianBlur stdDeviation="22.8906"/>
<feComposite in2="hardAlpha" operator="out"/>
<feColorMatrix type="matrix" values="0 0 0 0 1 0 0 0 0 0.427451 0 0 0 0 0.00784314 0 0 0 1 0"/>
<feBlend mode="normal" in2="BackgroundImageFix" result="effect1_dropShadow_309_43"/>
<feBlend mode="normal" in="SourceGraphic" in2="effect1_dropShadow_309_43" result="shape"/>
<feGaussianBlur stdDeviation="20.2231" result="effect2_foregroundBlur_309_43"/>
</filter>
<filter id="filter2_df_309_43" x="28.2101" y="78.8285" width="840.107" height="802.886" filterUnits="userSpaceOnUse" color-interpolation-filters="sRGB">
<feFlood flood-opacity="0" result="BackgroundImageFix"/>
<feColorMatrix in="SourceAlpha" type="matrix" values="0 0 0 0 0 0 0 0 0 0 0 0 0 0 0 0 0 0 127 0" result="hardAlpha"/>
<feMorphology radius="16.1289" operator="dilate" in="SourceAlpha" result="effect1_dropShadow_309_43"/>
<feOffset/>
<feGaussianBlur stdDeviation="22.8906"/>
<feComposite in2="hardAlpha" operator="out"/>
<feColorMatrix type="matrix" values="0 0 0 0 1 0 0 0 0 0.427451 0 0 0 0 0.00784314 0 0 0 1 0"/>
<feBlend mode="normal" in2="BackgroundImageFix" result="effect1_dropShadow_309_43"/>
<feBlend mode="normal" in="SourceGraphic" in2="effect1_dropShadow_309_43" result="shape"/>
<feGaussianBlur stdDeviation="20.2231" result="effect2_foregroundBlur_309_43"/>
</filter>
<radialGradient id="paint0_radial_309_43" cx="0" cy="0" r="1" gradientUnits="userSpaceOnUse" gradientTransform="translate(1131.73 359.763) rotate(92.847) scale(436.216 397.403)">
<stop stop-color="#FFC400"/>
<stop offset="1" stop-color="#E70000"/>
</radialGradient>
<radialGradient id="paint1_radial_309_43" cx="0" cy="0" r="1" gradientUnits="userSpaceOnUse" gradientTransform="translate(1131.73 359.763) rotate(92.847) scale(436.216 397.403)">
<stop stop-color="#FFC533"/>
<stop offset="1" stop-color="#FF6A01"/>
</radialGradient>
<radialGradient id="paint2_radial_309_43" cx="0" cy="0" r="1" gradientUnits="userSpaceOnUse" gradientTransform="translate(759.726 404.763) rotate(92.847) scale(436.216 397.403)">
<stop stop-color="#FFC400"/>
<stop offset="1" stop-color="#E70000"/>
</radialGradient>
<radialGradient id="paint3_radial_309_43" cx="0" cy="0" r="1" gradientUnits="userSpaceOnUse" gradientTransform="translate(759.726 404.763) rotate(92.847) scale(436.216 397.403)">
<stop stop-color="#FFC533"/>
<stop offset="1" stop-color="#FF6A01"/>
</radialGradient>
<radialGradient id="paint4_radial_309_43" cx="0" cy="0" r="1" gradientUnits="userSpaceOnUse" gradientTransform="translate(460.504 463.617) rotate(140.35) scale(516.518 553.266)">
<stop stop-color="#FFC400"/>
<stop offset="1" stop-color="#E70000"/>
</radialGradient>
<radialGradient id="paint5_radial_309_43" cx="0" cy="0" r="1" gradientUnits="userSpaceOnUse" gradientTransform="translate(460.504 463.617) rotate(140.35) scale(516.518 553.266)">
<stop stop-color="#FFC533"/>
<stop offset="1" stop-color="#FF6A01"/>
</radialGradient>
</defs>
</svg>
