<svg width="26" height="26" viewBox="0 0 26 26" fill="none" xmlns="http://www.w3.org/2000/svg">
<path d="M2.73045 2.58367L3.85045 1.60367C4.87045 0.583672 6.60045 0.533672 7.70045 1.65367L9.57045 4.10367C10.6205 5.15367 10.6205 6.86367 9.57045 7.90367L8.08045 9.43367C9.70045 13.2337 12.6905 16.2337 16.3705 17.7337L17.9005 16.2437C18.4105 15.7337 19.0805 15.4537 19.8005 15.4537C20.5205 15.4537 21.1905 15.7337 21.6505 16.2037L24.1905 18.1637C25.2405 19.2137 25.2405 20.9237 24.2105 21.9437L23.1905 23.1137C22.0905 24.2137 20.6105 24.8237 19.0005 24.8237C11.2505 24.8237 0.98045 14.5437 0.98045 6.80367C0.98045 5.20367 1.59045 3.71367 2.71045 2.59367L2.73045 2.58367ZM19.0205 23.8137C20.3605 23.8137 21.5905 23.3137 22.4805 22.4237L23.5005 21.2437C24.1605 20.5837 24.1605 19.5137 23.5505 18.8937L21.0105 16.9337C20.6905 16.6137 20.2705 16.4337 19.8105 16.4337C19.3505 16.4337 18.9305 16.6137 18.6105 16.9337L16.8405 18.6637C16.7005 18.8037 16.5005 18.8437 16.3105 18.7737C12.1405 17.1837 8.75045 13.7937 7.02045 9.49367C6.95045 9.31367 6.99045 9.10367 7.13045 8.95367L8.86045 7.18367C9.52045 6.52367 9.52045 5.45367 8.82045 4.74367L6.95045 2.29367C6.29045 1.63367 5.22045 1.63367 4.53045 2.31367L3.41045 3.29367C2.50045 4.20367 2.00045 5.43367 2.00045 6.77367C2.00045 13.9337 11.8605 23.7937 19.0205 23.7937V23.8137Z" fill="#FEFEFE" stroke="white" stroke-width="1.2"/>
</svg>
