<svg width="40" height="41" viewBox="0 0 40 41" fill="none" xmlns="http://www.w3.org/2000/svg">
<path d="M39.5 20.344C39.5 31.2345 30.6405 40.094 19.75 40.094C15.5367 40.094 11.5587 38.7872 8.22917 36.3793V40.094H4.9375V33.5107C4.9375 31.6953 6.41381 30.219 8.22917 30.219H14.8125V33.5107H9.89804C12.7256 35.6387 16.1325 36.8023 19.75 36.8023C28.8251 36.8023 36.2083 29.4191 36.2083 20.344C36.2083 18.2768 35.8314 16.264 35.0859 14.3597L38.1521 13.1599C39.0457 15.4476 39.4984 17.8637 39.4984 20.3423L39.5 20.344ZM19.75 3.88566C23.3692 3.88566 26.7761 5.04926 29.602 7.17733H24.6875V10.469H31.2708C33.0862 10.469 34.5625 8.99268 34.5625 7.17733V0.593994H31.2708V4.30864C27.9413 1.90079 23.9633 0.593994 19.75 0.593994C8.85952 0.593994 0 9.45352 0 20.344C0 22.8226 0.452604 25.2403 1.34629 27.5264L4.41248 26.3266C3.66856 24.424 3.29002 22.4095 3.29002 20.3423C3.29167 11.2689 10.6749 3.88566 19.75 3.88566ZM30.55 16.0089L28.2738 17.3222C28.6095 18.2686 28.8004 19.2824 28.8004 20.3423C28.8004 21.4023 28.6079 22.4177 28.2738 23.3625L30.55 24.6758L28.9041 27.5264L26.6296 26.213C25.308 27.7601 23.4778 28.853 21.3942 29.2348V31.8599H18.1025V29.2348C16.0205 28.8513 14.1887 27.7585 12.8671 26.213L10.5926 27.5264L8.94675 24.6758L11.2229 23.3625C10.8872 22.4161 10.6963 21.4023 10.6963 20.3423C10.6963 19.2824 10.8888 18.267 11.2229 17.3222L8.94675 16.0089L10.5926 13.1583L12.8671 14.4717C14.1887 12.9246 16.0189 11.8317 18.1025 11.4499V8.82481H21.3942V11.4499C23.4762 11.8334 25.308 12.9262 26.6296 14.4717L28.9041 13.1583L30.55 16.0089ZM16.4583 18.6982H13.1667V23.6357H16.4583V18.6982ZM21.3958 15.4065H18.1042V23.6357H21.3958V15.4065ZM26.3333 17.0523H23.0417V23.6357H26.3333V17.0523Z" fill="#A09F9B"/>
</svg>
