<svg width="1982" height="1286" viewBox="0 0 1982 1286" fill="none" xmlns="http://www.w3.org/2000/svg">
<g filter="url(#filter0_fn_1017_14)">
<g filter="url(#filter1_df_1017_14)">
<path d="M1454.36 302.987C1504.28 306.612 1543.44 344.761 1581.02 377.822C1617.09 409.545 1651.05 444.554 1666.84 489.911C1682.72 535.507 1682.53 585.313 1669.48 631.8C1656.66 677.477 1676.21 790.633 1639.11 820.198C1603.57 848.518 1513.23 825.901 1468.4 833.33C1424.34 840.63 1377.27 810.056 1336.51 791.794C1296.2 773.73 1274.32 731.849 1250.03 694.949C1226.42 659.08 1203.15 622.818 1197.3 580.278C1191.08 535.003 1193.92 487.283 1215.98 447.257C1238.31 406.723 1279.74 382.784 1319.34 358.821C1361.86 333.082 1404.78 299.387 1454.36 302.987Z" fill="#FF4400"/>
</g>
<g filter="url(#filter2_df_1017_14)">
<path d="M1066.36 347.987C1116.28 351.612 1155.44 389.761 1193.02 422.822C1229.09 454.545 1263.05 489.554 1278.84 534.911C1294.72 580.507 1294.53 630.313 1281.48 676.8C1268.66 722.477 1288.21 835.633 1251.11 865.198C1215.57 893.518 1125.23 870.901 1080.4 878.33C1036.34 885.63 989.27 855.056 948.513 836.794C908.201 818.73 886.316 776.849 862.031 739.949C838.423 704.08 815.153 667.818 809.304 625.278C803.08 580.003 805.92 532.283 827.976 492.257C850.312 451.723 891.742 427.784 931.336 403.821C973.864 378.082 1016.78 344.387 1066.36 347.987Z" fill="#FF6800"/>
</g>
<g filter="url(#filter3_df_1017_14)">
<path d="M942.086 507.936C979.727 554.674 978.298 620.205 980.039 680.191C981.709 737.749 978.78 796.151 951.927 847.089C924.931 898.295 881.099 938.847 829.671 965.417C779.138 991.525 721.434 1003.6 665.173 995.241C611.283 987.234 589.816 952.131 507.622 965.142C500.061 898.442 500.268 859.038 385.951 805.201C533.499 766.989 369.674 718.38 382.171 666.915C466.075 661.946 363.406 502.937 395.925 463.025C430.533 420.549 578.792 465.246 578.501 383.084C632.306 369.526 729.344 420.076 782.729 435.2C840.07 451.444 904.703 461.52 942.086 507.936Z" fill="#FFC633"/>
</g>
</g>
<defs>
<filter id="filter0_fn_1017_14" x="-93.6" y="-93.6" width="2169.2" height="1473.2" filterUnits="userSpaceOnUse" color-interpolation-filters="sRGB">
<feFlood flood-opacity="0" result="BackgroundImageFix"/>
<feBlend mode="normal" in="SourceGraphic" in2="BackgroundImageFix" result="shape"/>
<feGaussianBlur stdDeviation="46.8" result="effect1_foregroundBlur_1017_14"/>
<feTurbulence type="fractalNoise" baseFrequency="1.4285714626312256 1.4285714626312256" stitchTiles="stitch" numOctaves="3" result="noise" seed="9238" />
<feColorMatrix in="noise" type="luminanceToAlpha" result="alphaNoise" />
<feComponentTransfer in="alphaNoise" result="coloredNoise1">
<feFuncA type="discrete" tableValues="1 1 1 1 1 1 1 1 1 1 1 1 1 1 1 1 1 1 1 1 1 1 1 1 1 1 1 1 1 1 1 1 1 1 1 1 1 1 1 1 1 1 1 1 1 1 1 1 1 1 1 0 0 0 0 0 0 0 0 0 0 0 0 0 0 0 0 0 0 0 0 0 0 0 0 0 0 0 0 0 0 0 0 0 0 0 0 0 0 0 0 0 0 0 0 0 0 0 0 0 "/>
</feComponentTransfer>
<feComposite operator="in" in2="effect1_foregroundBlur_1017_14" in="coloredNoise1" result="noise1Clipped" />
<feFlood flood-color="rgba(0, 0, 0, 0.15)" result="color1Flood" />
<feComposite operator="in" in2="noise1Clipped" in="color1Flood" result="color1" />
<feMerge result="effect2_noise_1017_14">
<feMergeNode in="effect1_foregroundBlur_1017_14" />
<feMergeNode in="color1" />
</feMerge>
</filter>
<filter id="filter1_df_1017_14" x="1132.51" y="240.811" width="608.426" height="656.026" filterUnits="userSpaceOnUse" color-interpolation-filters="sRGB">
<feFlood flood-opacity="0" result="BackgroundImageFix"/>
<feColorMatrix in="SourceAlpha" type="matrix" values="0 0 0 0 0 0 0 0 0 0 0 0 0 0 0 0 0 0 127 0" result="hardAlpha"/>
<feMorphology radius="16.1289" operator="dilate" in="SourceAlpha" result="effect1_dropShadow_1017_14"/>
<feOffset/>
<feGaussianBlur stdDeviation="22.8906"/>
<feComposite in2="hardAlpha" operator="out"/>
<feColorMatrix type="matrix" values="0 0 0 0 1 0 0 0 0 0.427451 0 0 0 0 0.00784314 0 0 0 1 0"/>
<feBlend mode="normal" in2="BackgroundImageFix" result="effect1_dropShadow_1017_14"/>
<feBlend mode="normal" in="SourceGraphic" in2="effect1_dropShadow_1017_14" result="shape"/>
<feGaussianBlur stdDeviation="15.45" result="effect2_foregroundBlur_1017_14"/>
</filter>
<filter id="filter2_df_1017_14" x="744.513" y="285.811" width="608.426" height="656.026" filterUnits="userSpaceOnUse" color-interpolation-filters="sRGB">
<feFlood flood-opacity="0" result="BackgroundImageFix"/>
<feColorMatrix in="SourceAlpha" type="matrix" values="0 0 0 0 0 0 0 0 0 0 0 0 0 0 0 0 0 0 127 0" result="hardAlpha"/>
<feMorphology radius="16.1289" operator="dilate" in="SourceAlpha" result="effect1_dropShadow_1017_14"/>
<feOffset/>
<feGaussianBlur stdDeviation="22.8906"/>
<feComposite in2="hardAlpha" operator="out"/>
<feColorMatrix type="matrix" values="0 0 0 0 1 0 0 0 0 0.427451 0 0 0 0 0.00784314 0 0 0 1 0"/>
<feBlend mode="normal" in2="BackgroundImageFix" result="effect1_dropShadow_1017_14"/>
<feBlend mode="normal" in="SourceGraphic" in2="effect1_dropShadow_1017_14" result="shape"/>
<feGaussianBlur stdDeviation="15.45" result="effect2_foregroundBlur_1017_14"/>
</filter>
<filter id="filter3_df_1017_14" x="319.573" y="318.889" width="722.754" height="740.884" filterUnits="userSpaceOnUse" color-interpolation-filters="sRGB">
<feFlood flood-opacity="0" result="BackgroundImageFix"/>
<feColorMatrix in="SourceAlpha" type="matrix" values="0 0 0 0 0 0 0 0 0 0 0 0 0 0 0 0 0 0 127 0" result="hardAlpha"/>
<feMorphology radius="16.1289" operator="dilate" in="SourceAlpha" result="effect1_dropShadow_1017_14"/>
<feOffset/>
<feGaussianBlur stdDeviation="22.8906"/>
<feComposite in2="hardAlpha" operator="out"/>
<feColorMatrix type="matrix" values="0 0 0 0 1 0 0 0 0 0.427451 0 0 0 0 0.00784314 0 0 0 1 0"/>
<feBlend mode="normal" in2="BackgroundImageFix" result="effect1_dropShadow_1017_14"/>
<feBlend mode="normal" in="SourceGraphic" in2="effect1_dropShadow_1017_14" result="shape"/>
<feGaussianBlur stdDeviation="15.45" result="effect2_foregroundBlur_1017_14"/>
</filter>
</defs>
</svg>
