<svg width="1467" height="901" viewBox="0 0 1467 901" fill="none" xmlns="http://www.w3.org/2000/svg">
<g filter="url(#filter0_f_446_34)">
<g opacity="0.75" filter="url(#filter1_f_446_34)">
<path d="M1148.33 94.0386C1198.25 97.6636 1237.41 135.813 1275 168.874C1311.06 200.597 1345.02 235.606 1360.81 280.963C1376.69 326.559 1376.5 376.365 1363.45 422.852C1350.63 468.529 1370.18 581.685 1333.08 611.25C1297.54 639.57 1207.2 616.953 1162.37 624.382C1118.31 631.682 1071.24 601.108 1030.48 582.846C990.172 564.782 968.287 522.901 944.001 486.001C920.394 450.132 897.124 413.87 891.275 371.33C885.05 326.055 887.891 278.335 909.947 238.309C932.282 197.775 973.712 173.836 1013.31 149.873C1055.83 124.134 1098.75 90.4387 1148.33 94.0386Z" fill="#FF4400"/>
</g>
<g opacity="0.92" filter="url(#filter2_f_446_34)">
<path d="M813.868 119.094C870.987 123.241 915.794 166.889 958.793 204.715C1000.05 241.01 1038.91 281.064 1056.98 332.958C1075.15 385.126 1074.92 442.111 1060 495.297C1045.33 547.558 1077.27 679.538 1034.81 713.365C994.153 745.766 880.522 687.774 829.23 696.274C778.818 704.627 725.672 699.245 679.041 678.35C632.918 657.683 607.879 609.766 580.094 567.548C553.084 526.509 526.46 485.021 519.769 436.349C512.647 384.55 515.896 329.952 541.131 284.157C566.686 237.781 614.087 210.392 659.388 182.975C708.045 153.527 757.143 114.975 813.868 119.094Z" fill="#FF6800"/>
</g>
<g opacity="0.75" filter="url(#filter3_f_446_34)">
<path d="M527.606 149.108C587.46 153.454 634.412 199.192 679.47 238.829C722.704 276.862 763.419 318.834 782.358 373.213C801.397 427.878 801.161 487.591 785.52 543.324C770.151 598.087 739.628 648.525 695.145 683.971C652.536 717.923 612.222 709.682 565.682 778.669C511.744 738.709 483.067 711.684 365.729 758.574C438.41 624.603 291.132 711.266 262.016 667.027C315.604 602.275 129.292 568.918 122.28 517.916C114.817 463.636 248.619 385.689 188.332 329.868C215.11 281.272 318.26 244.777 365.729 216.048C416.716 185.19 468.165 144.792 527.606 149.108Z" fill="#FFC633"/>
</g>
</g>
<defs>
<filter id="filter0_f_446_34" x="28.3775" y="0.172707" width="1438.22" height="872.096" filterUnits="userSpaceOnUse" color-interpolation-filters="sRGB">
<feFlood flood-opacity="0" result="BackgroundImageFix"/>
<feBlend mode="normal" in="SourceGraphic" in2="BackgroundImageFix" result="shape"/>
<feGaussianBlur stdDeviation="46.8" result="effect1_foregroundBlur_446_34"/>
</filter>
<filter id="filter1_f_446_34" x="833.615" y="38.9943" width="594.163" height="641.763" filterUnits="userSpaceOnUse" color-interpolation-filters="sRGB">
<feFlood flood-opacity="0" result="BackgroundImageFix"/>
<feBlend mode="normal" in="SourceGraphic" in2="BackgroundImageFix" result="shape"/>
<feGaussianBlur stdDeviation="27.3892" result="effect1_foregroundBlur_446_34"/>
</filter>
<filter id="filter2_f_446_34" x="461.693" y="64.0111" width="664.007" height="714.063" filterUnits="userSpaceOnUse" color-interpolation-filters="sRGB">
<feFlood flood-opacity="0" result="BackgroundImageFix"/>
<feBlend mode="normal" in="SourceGraphic" in2="BackgroundImageFix" result="shape"/>
<feGaussianBlur stdDeviation="27.3892" result="effect1_foregroundBlur_446_34"/>
</filter>
<filter id="filter3_f_446_34" x="0.177536" y="26.9895" width="918.59" height="873.48" filterUnits="userSpaceOnUse" color-interpolation-filters="sRGB">
<feFlood flood-opacity="0" result="BackgroundImageFix"/>
<feBlend mode="normal" in="SourceGraphic" in2="BackgroundImageFix" result="shape"/>
<feGaussianBlur stdDeviation="60.9" result="effect1_foregroundBlur_446_34"/>
</filter>
</defs>
</svg>
